<?xml version="1.0" encoding="utf-8"?>
<!-- Generator: Adobe Illustrator 28.1.0, SVG Export Plug-In . SVG Version: 6.00 Build 0)  -->
<svg version="1.1" id="Capa_1" xmlns="http://www.w3.org/2000/svg" xmlns:xlink="http://www.w3.org/1999/xlink" x="0px" y="0px"
	 viewBox="0 0 400 343.6" style="enable-background:new 0 0 400 343.6;" xml:space="preserve">
<style type="text/css">
	.st0{fill:#FFFFFF;}
</style>
<path id="Rectángulo_216" class="st0" d="M48.68,0.74h302.04c27.05,0,48.98,21.93,48.98,48.98v244.9
	c0,27.05-21.93,48.98-48.98,48.98H48.68c-27.05,0-48.98-21.93-48.98-48.98V49.72C-0.3,22.67,21.63,0.74,48.68,0.74z"/>
<g id="Línea_17">
	<path d="M293.83,111.37H109.91c-4.51,0-8.16-3.65-8.16-8.16s3.65-8.16,8.16-8.16h183.92c4.51,0,8.16,3.65,8.16,8.16
		S298.34,111.37,293.83,111.37z"/>
</g>
<g id="Línea_18">
	<path d="M293.83,180.33H109.91c-4.51,0-8.16-3.65-8.16-8.16c0-4.51,3.65-8.16,8.16-8.16h183.92c4.51,0,8.16,3.65,8.16,8.16
		C301.99,176.68,298.34,180.33,293.83,180.33z"/>
</g>
<g id="Línea_19">
	<path d="M293.83,249.3H109.91c-4.51,0-8.16-3.65-8.16-8.16c0-4.51,3.65-8.16,8.16-8.16h183.92c4.51,0,8.16,3.65,8.16,8.16
		C301.99,245.65,298.34,249.3,293.83,249.3z"/>
</g>
</svg>
