<?xml version="1.0" encoding="utf-8"?>
<!-- Generator: Adobe Illustrator 28.1.0, SVG Export Plug-In . SVG Version: 6.00 Build 0)  -->
<svg version="1.1" id="Capa_1" xmlns="http://www.w3.org/2000/svg" xmlns:xlink="http://www.w3.org/1999/xlink" x="0px" y="0px"
	 viewBox="0 0 500 500" style="enable-background:new 0 0 500 500;" xml:space="preserve">
<style type="text/css">
	.st0{fill-rule:evenodd;clip-rule:evenodd;}
</style>
<g>
	<g id="Grupo_112" transform="translate(0 0)">
		<g id="Trazado_734">
			<path class="st0" d="M216.2,248.3v133c0,1.9,1.6,3.5,3.5,3.5l0,0h49.4c1.9,0,3.5-1.6,3.5-3.5V246.1h35.8c1.8,0,3.3-1.4,3.5-3.1
				l3.4-40.7c0.2-1.9-1.3-3.6-3.2-3.8c-0.1,0-0.2,0-0.3,0h-39.2v-28.9c0-6.8,5.5-12.3,12.3-12.3h27.6c1.9,0,3.5-1.6,3.5-3.5v0v-40.7
				c0-1.9-1.5-3.5-3.5-3.5h0h-46.6c-27.4,0-49.6,22.1-49.6,49.5c0,0,0,0,0,0v39.3h-24.7c-1.9,0-3.5,1.6-3.5,3.5v40.7
				c0,1.9,1.6,3.5,3.5,3.5h24.7L216.2,248.3L216.2,248.3z"/>
		</g>
	</g>
	<g id="Elipse_9">
		<g>
			<path d="M250,500C112.2,500,0,387.9,0,250S112.2,0,250,0s250,112.2,250,250S387.9,500,250,500z M250,20.8
				C123.6,20.8,20.8,123.6,20.8,250S123.6,479.2,250,479.2S479.2,376.4,479.2,250S376.4,20.8,250,20.8z"/>
		</g>
	</g>
</g>
</svg>
