<?xml version="1.0" encoding="utf-8"?>
<!-- Generator: Adobe Illustrator 28.1.0, SVG Export Plug-In . SVG Version: 6.00 Build 0)  -->
<svg version="1.1" id="Capa_1" xmlns="http://www.w3.org/2000/svg" xmlns:xlink="http://www.w3.org/1999/xlink" x="0px" y="0px"
	 viewBox="0 0 500 500" style="enable-background:new 0 0 500 500;" xml:space="preserve">
<g>
	<g id="Grupo_114" transform="translate(0 0)">
		<g id="Trazado_735">
			<path d="M330.5,179.6c0,8.2-6.6,14.8-14.8,14.8s-14.8-6.6-14.8-14.8s6.6-14.8,14.8-14.8S330.5,171.5,330.5,179.6L330.5,179.6
				 M312.1,245.9c0,34.3-27.8,62.1-62.1,62.1c-34.3,0-62.1-27.8-62.1-62.1s27.8-62.1,62.1-62.1c0,0,0,0,0,0
				C284.3,183.8,312,211.6,312.1,245.9 M289.8,245.9c0-22-17.8-39.8-39.8-39.8c-22,0-39.8,17.8-39.8,39.8c0,22,17.8,39.8,39.8,39.8
				c0,0,0,0,0,0C271.9,285.6,289.7,267.8,289.8,245.9 M375.7,196c0-41.8-33.9-75.7-75.7-75.7h0H196.6c-41.8,0-75.7,33.9-75.7,75.7
				l0,0v103.4c0,41.8,33.9,75.7,75.7,75.7l0,0h103.4c41.8,0,75.7-33.9,75.7-75.7l0,0V196z M350.8,298.2c0,28.7-23.3,52-52,52H197.7
				c-28.7,0-52-23.3-52-52V197.1c0-28.7,23.3-52,52-52h101c28.7,0,52,23.3,52,52c0,0,0,0,0,0L350.8,298.2z"/>
		</g>
	</g>
	<g>
		<path d="M250,499.8c-137.9,0-250-112.1-250-250s112.2-250,250-250s250,112.2,250,250S387.8,499.8,250,499.8z M250,20.6
			c-126.4,0-229.2,102.8-229.2,229.2S123.6,479,250,479s229.2-102.8,229.2-229.2S376.4,20.6,250,20.6z"/>
	</g>
</g>
</svg>
