<?xml version="1.0" encoding="utf-8"?>
<!-- Generator: Adobe Illustrator 28.1.0, SVG Export Plug-In . SVG Version: 6.00 Build 0)  -->
<svg version="1.1" id="Capa_1" xmlns="http://www.w3.org/2000/svg" xmlns:xlink="http://www.w3.org/1999/xlink" x="0px" y="0px"
	 viewBox="0 0 500 500" style="enable-background:new 0 0 500 500;" xml:space="preserve">
<style type="text/css">
	.st0{clip-path:url(#SVGID_00000079465724653032933210000006385607741227161745_);}
	.st1{clip-path:url(#SVGID_00000070095866419353985920000017106987368382123947_);fill:#06AC3A;}
	.st2{clip-path:url(#SVGID_00000065782353450173297960000012511533193600231560_);}
	.st3{fill-rule:evenodd;clip-rule:evenodd;fill:#FFFFFF;}
</style>
<g>
	<g id="Grupo_147" transform="translate(6.575 5.111)">
		<g>
			<defs>
				<path id="SVGID_1_" d="M32.62,240.3c-0.03,45.33,14.43,89.48,41.26,126.02l-27.05,79.81l83.23-26.45
					c99.29,64.69,232.21,36.64,296.9-62.65s36.64-232.21-62.65-296.9S132.1,23.5,67.41,122.79
					C44.64,157.74,32.55,198.58,32.62,240.3"/>
			</defs>
			<clipPath id="SVGID_00000172406434662638937100000018384566641043021722_">
				<use xlink:href="#SVGID_1_"  style="overflow:visible;"/>
			</clipPath>
			<g id="Grupo_146" style="clip-path:url(#SVGID_00000172406434662638937100000018384566641043021722_);">
				<g id="Rectángulo_147">
					<g>
						<defs>
							<rect id="SVGID_00000181080990967606617160000008559890390662564511_" x="32.62" y="25.36" width="433.21" height="429.86"/>
						</defs>
						<clipPath id="SVGID_00000086664020505925567700000007042031449522285967_">
							<use xlink:href="#SVGID_00000181080990967606617160000008559890390662564511_"  style="overflow:visible;"/>
						</clipPath>
						
							<rect x="32.62" y="25.36" style="clip-path:url(#SVGID_00000086664020505925567700000007042031449522285967_);fill:#06AC3A;" width="433.21" height="429.86"/>
					</g>
				</g>
			</g>
		</g>
	</g>
	<g id="Grupo_149">
		<g>
			<defs>
				<rect id="SVGID_00000173123533396587849730000000415554703758454174_" y="0" width="500" height="500"/>
			</defs>
			<clipPath id="SVGID_00000021097913070989015660000011646036372582291614_">
				<use xlink:href="#SVGID_00000173123533396587849730000000415554703758454174_"  style="overflow:visible;"/>
			</clipPath>
			<g id="Grupo_148" style="clip-path:url(#SVGID_00000021097913070989015660000011646036372582291614_);">
				<g id="Trazado_782">
					<path class="st3" d="M500,243.57c-1.28,135.78-112.39,244.81-248.17,243.53c-40.54-0.38-80.36-10.79-115.91-30.29L-0.01,500
						L44.3,369.34C21.21,331.45,9.02,287.92,9.09,243.55C10.04,107.99,120.69-1.14,256.26-0.2C390.48,0.74,499.07,109.32,500,243.55
						 M254.55,38.79C141.06,38.47,48.74,130.08,48.18,243.57c-0.03,43.19,13.74,85.27,39.3,120.08l-25.77,76.02L141,414.48
						c95.4,62.59,223.47,35.99,286.06-59.41c21.75-33.15,33.5-71.85,33.85-111.5C460.35,130.09,368.03,38.48,254.55,38.79
						 M378.5,299.67c-1.52-2.49-5.53-3.99-11.53-6.97c-6-2.99-35.61-17.44-41.13-19.42c-5.52-1.98-9.54-2.98-13.54,2.98
						c-4,5.96-15.55,19.42-19.08,23.41c-3.53,3.99-7,4.48-13.02,1.49c-17.72-7-34.1-17.02-48.4-29.62
						c-13.13-12.06-24.41-25.99-33.48-41.34c-3.49-5.96-0.35-9.2,2.63-12.17c2.72-2.69,6.03-6.97,9.04-10.44
						c2.47-3.03,4.5-6.39,6.02-9.99c1.63-3.34,1.44-7.28-0.51-10.44c-1.5-2.98-13.53-32.36-18.56-44.33
						c-5.03-11.97-10.01-11.48-13.53-11.48c-3.35,0.15-6.68,0.5-9.99,1.04c-6.45,0.76-12.55,3.35-17.57,7.46
						c-13.72,12.88-21.37,30.96-21.05,49.78c0,29.38,21.54,57.78,24.55,61.74c3,3.96,41.61,66.24,102.78,90.14
						s61.17,15.92,72.21,14.9c11.04-1.02,35.59-14.43,40.61-28.37c5.02-13.94,5.02-25.9,3.53-28.38"/>
				</g>
			</g>
		</g>
	</g>
</g>
</svg>
