<?xml version="1.0" encoding="utf-8"?>
<!-- Generator: Adobe Illustrator 28.1.0, SVG Export Plug-In . SVG Version: 6.00 Build 0)  -->
<svg version="1.1" id="Capa_1" xmlns="http://www.w3.org/2000/svg" xmlns:xlink="http://www.w3.org/1999/xlink" x="0px" y="0px"
	 viewBox="0 0 500 500" style="enable-background:new 0 0 500 500;" xml:space="preserve">
<style type="text/css">
	.st0{clip-path:url(#SVGID_00000130608374360008266580000008000945744107320509_);}
	.st1{fill:#FFFFFF;}
	.st2{fill:none;}
</style>
<g>
	<g id="Grupo_117" transform="translate(11.629 11.18)">
		<g>
			<defs>
				<rect id="SVGID_1_" x="113.36" y="103.18" width="250.01" height="270.84"/>
			</defs>
			<clipPath id="SVGID_00000126323806822182592550000000174983488359724160_">
				<use xlink:href="#SVGID_1_"  style="overflow:visible;"/>
			</clipPath>
			
				<g id="Grupo_114" transform="translate(0 0)" style="clip-path:url(#SVGID_00000126323806822182592550000000174983488359724160_);">
				<g id="Trazado_735">
					<path class="st1" d="M318.84,168.45c0,8.16-6.62,14.78-14.78,14.78c-8.16,0-14.78-6.62-14.78-14.78
						c0-8.16,6.62-14.78,14.78-14.78C312.22,153.67,318.84,160.29,318.84,168.45C318.84,168.45,318.84,168.45,318.84,168.45
						 M300.43,234.72c0.01,34.3-27.8,62.11-62.1,62.12c-34.3,0.01-62.11-27.8-62.12-62.1s27.8-62.11,62.1-62.12
						c0.01,0,0.02,0,0.03,0c34.28,0.04,62.07,27.82,62.11,62.11 M278.13,234.73c0.01-21.97-17.79-39.79-39.76-39.8
						c-21.97-0.01-39.79,17.79-39.8,39.76c-0.01,21.97,17.79,39.79,39.76,39.8c0.01,0,0.01,0,0.02,0
						c21.96-0.03,39.75-17.82,39.78-39.78 M364.03,184.82c0-41.83-33.91-75.74-75.74-75.74c0,0-0.01,0-0.01,0H184.92
						c-41.83,0-75.74,33.91-75.74,75.74c0,0,0,0,0,0v103.37c0,41.83,33.91,75.74,75.74,75.74l0,0h103.37
						c41.83,0,75.74-33.91,75.74-75.74l0,0L364.03,184.82z M339.17,287.04c0,28.73-23.29,52.02-52.02,52.02H186.1
						c-28.73,0-52.02-23.29-52.02-52.02V185.95c0.01-28.71,23.27-51.99,51.98-52.01h101.04c28.73-0.02,52.04,23.26,52.05,51.99
						c0,0.01,0,0.01,0,0.02L339.17,287.04z"/>
				</g>
			</g>
		</g>
	</g>
	<g>
		<circle class="st2" cx="249.99" cy="249.78" r="250.01"/>
	</g>
	<g>
		<path class="st1" d="M249.99,499.78c-137.85,0-250.01-112.15-250.01-250.01S112.14-0.23,249.99-0.23S500,111.93,500,249.78
			S387.84,499.78,249.99,499.78z M249.99,20.61c-126.37,0-229.17,102.81-229.17,229.17s102.81,229.17,229.17,229.17
			s229.17-102.81,229.17-229.17S376.36,20.61,249.99,20.61z"/>
	</g>
</g>
</svg>
