<?xml version="1.0" encoding="utf-8"?>
<!-- Generator: Adobe Illustrator 28.1.0, SVG Export Plug-In . SVG Version: 6.00 Build 0)  -->
<svg version="1.1" id="Capa_1" xmlns="http://www.w3.org/2000/svg" xmlns:xlink="http://www.w3.org/1999/xlink" x="0px" y="0px"
	 viewBox="0 0 500 500" style="enable-background:new 0 0 500 500;" xml:space="preserve">
<style type="text/css">
	.st0{fill:#FFFFFF;}
</style>
<g>
	<path class="st0" d="M275.89,373.43c-7.99-6.91-18.12-11.98-30.17-15.08l41.41-44.71v-43.11H123.95v54.16h80.8l-34.17,36.89V405
		h29.09c10.93,0,18.76,1.69,23.35,5.09c4.04,2.82,6.37,7.44,6.25,12.56c0.17,5.58-2.72,10.78-7.66,13.65
		c-5.59,3.54-13.37,5.33-23.13,5.33c-0.01,0-0.01,0-0.02,0c-10.19-0.06-20.3-1.57-30.11-4.5c-9.92-2.83-19.32-7.15-27.92-12.84
		l-3.3-2.18l-25.34,52.43l2.73,1.62c12.46,7.4,25.94,12.83,40,16.13c14.95,3.74,30.34,5.65,45.76,5.67
		c22.26,0,40.76-3.6,54.98-10.71c14.32-7.16,25.13-16.58,32.11-27.97c6.92-11.02,10.58-23.72,10.58-36.63
		C298.47,403.62,290.43,385.69,275.89,373.43z M281.5,455.62c-6.32,10.31-16.18,18.86-29.33,25.44c-13.25,6.63-30.7,9.98-51.88,9.98
		c-14.85-0.02-29.68-1.85-44.14-5.47c-12.4-2.91-24.27-7.54-35.36-13.77l19.15-39.64c8.27,5.04,17.17,8.94,26.47,11.59
		c10.4,3.11,21.16,4.72,32.03,4.78c0.01,0,0.01,0,0.02,0c11.11,0,20.14-2.16,26.74-6.34c7.02-4.08,11.22-11.65,10.98-19.57
		c0.19-7.25-3.25-14.06-9.12-18.16c-5.81-4.3-14.77-6.39-27.38-6.39H177.5v-33.8l43.07-46.5h-89.7v-40.34h149.36v33.49l-47.85,51.67
		l6.08,1.19c13.5,2.64,24.58,7.65,32.93,14.88l0.04,0.03c12.93,10.9,20.09,26.84,19.63,43.84
		C291.04,434.25,287.74,445.67,281.5,455.62z"/>
	<path class="st0" d="M486.31,319.75c-15.41-33.46-49.14-54.48-85.82-53.55c-18.04-0.35-35.7,4.43-51.17,13.81
		c-15.28,9.65-27.42,23.39-35.08,39.69c-8.44,17.08-12.72,38.06-12.72,62.37s4.28,45.29,12.68,62.32
		c10.85,22.99,30,40.37,53.92,48.96c10.5,3.77,21.36,5.64,32.2,5.64c13.85,0,27.65-3.06,40.55-9.15
		c19.91-9.4,36.05-25.54,45.42-45.39c8.43-17.08,12.71-38.06,12.71-62.37C499,357.79,494.73,336.82,486.31,319.75z M480.07,441.44
		c-8.71,18.46-23.68,33.43-42.15,42.15c-21.32,10.06-45.27,11.21-67.46,3.26c-22.19-7.96-39.94-24.08-50.03-45.46
		c-7.96-16.12-12-36.08-12-59.31s4.04-43.19,12.03-59.37c7.12-15.16,18.38-27.9,32.49-36.81c13.83-8.39,29.62-12.8,45.9-12.8
		c0.55,0,1.1,0,1.65,0.01c34.14-0.82,65.3,18.6,79.54,49.57l0.04,0.09c7.96,16.12,12,36.07,11.99,59.31
		C492.09,405.31,488.05,425.27,480.07,441.44z"/>
	<path class="st0" d="M420.05,323.18c-11.37-9.2-27.88-9.2-39.26,0.01c-5.54,4.52-9.97,11.71-13.14,21.36
		c-3.09,9.37-4.65,21.99-4.65,37.53c0,15.33,1.56,27.9,4.64,37.36c3.18,9.76,7.6,17,13.16,21.54c5.68,4.6,12.65,6.9,19.62,6.9
		s13.95-2.3,19.64-6.91c5.55-4.53,9.92-11.79,13-21.56l0,0c2.97-9.46,4.48-22.02,4.48-37.33c0.01-15.53-1.5-28.14-4.48-37.5
		C429.98,334.92,425.61,327.72,420.05,323.18z M426.47,417.33c-2.67,8.47-6.3,14.62-10.77,18.27c-8.85,7.17-21.7,7.17-30.54,0.01
		c-4.5-3.67-8.19-9.84-10.94-18.31c-2.86-8.77-4.3-20.63-4.3-35.22c0-14.8,1.45-26.69,4.3-35.36c2.76-8.38,6.44-14.5,10.94-18.16
		c4.43-3.58,9.86-5.37,15.28-5.37s10.84,1.79,15.26,5.36c4.49,3.67,8.12,9.78,10.79,18.14c2.76,8.67,4.16,20.58,4.16,35.4
		C430.63,396.68,429.23,408.54,426.47,417.33z"/>
	<path class="st0" d="M114.36,327.41H75.08v-38.38H39.06v38.38H0v34.45h39.06v38.38h36.03v-38.38h39.28L114.36,327.41L114.36,327.41
		z M107.45,354.95H68.17v38.38h-22.2v-38.38H6.91v-20.63h39.06v-38.38h22.21v38.38h39.28v20.63H107.45z"/>
</g>
</svg>
