<?xml version="1.0" encoding="utf-8"?>
<!-- Generator: Adobe Illustrator 28.1.0, SVG Export Plug-In . SVG Version: 6.00 Build 0)  -->
<svg version="1.1" id="Capa_1" xmlns="http://www.w3.org/2000/svg" xmlns:xlink="http://www.w3.org/1999/xlink" x="0px" y="0px"
	 viewBox="0 0 500 500" style="enable-background:new 0 0 500 500;" xml:space="preserve">
<style type="text/css">
	.st0{fill:#FFFFFF;}
</style>
<g>
	<path class="st0" d="M391.01,189.73c-3.34-3.75-5.98-8.06-7.8-12.73c-0.82-5.16-0.71-10.44,0.33-15.56
		c1.1-8.49,2.25-17.27-2.04-24.68c-4.35-7.53-12.59-10.94-20.57-14.23c-4.88-1.62-9.43-4.1-13.43-7.32c-3.23-4-5.71-8.56-7.32-13.44
		c-3.31-7.98-6.71-16.23-14.23-20.57c-7.4-4.28-16.19-3.15-24.68-2.04c-5.13,1.05-10.4,1.15-15.56,0.33
		c-4.67-1.82-8.99-4.46-12.73-7.8c-6.6-5.07-14.08-10.81-22.97-10.81c-8.9,0-16.38,5.75-22.96,10.81c-3.75,3.34-8.06,5.98-12.73,7.8
		c-5.16,0.82-10.44,0.71-15.56-0.33c-8.49-1.1-17.27-2.25-24.68,2.04c-7.52,4.35-10.94,12.59-14.23,20.57
		c-1.61,4.88-4.1,9.43-7.32,13.44c-4,3.23-8.56,5.71-13.44,7.32c-7.98,3.31-16.23,6.71-20.57,14.23c-4.28,7.4-3.15,16.19-2.04,24.68
		c1.04,5.13,1.15,10.4,0.33,15.56c-1.82,4.67-4.46,8.99-7.8,12.73c-5.08,6.59-10.82,14.07-10.82,22.97s5.75,16.38,10.81,22.96
		c3.34,3.75,5.98,8.06,7.8,12.73c0.82,5.16,0.71,10.44-0.33,15.56c-1.1,8.49-2.25,17.27,2.04,24.68
		c4.35,7.53,12.59,10.94,20.57,14.23c4.88,1.61,9.43,4.1,13.44,7.32c1.8,1.97,3.27,4.2,4.35,6.64L110.6,453.24
		c-2.16,6.4,1.28,13.34,7.68,15.51c2.96,1,6.19,0.83,9.02-0.48l48.02-22.17c0.59-0.27,1.29-0.04,1.59,0.55l24.63,46.82
		c2.08,4.03,6.24,6.55,10.77,6.52c0.33,0,0.68,0,1.01-0.04c4.89-0.34,9.1-3.6,10.63-8.27l26.04-76.8l26.04,76.79
		c1.53,4.65,5.73,7.92,10.62,8.27c0.34,0.03,0.68,0.04,1.01,0.04c4.53,0.03,8.7-2.49,10.77-6.52l24.63-46.81
		c0.3-0.57,1-0.81,1.59-0.55l48.02,22.17c6.13,2.83,13.41,0.14,16.23-5.99c1.3-2.84,1.48-6.07,0.48-9.03l-46.27-136.41
		c1.08-2.43,2.55-4.67,4.35-6.64c4.01-3.23,8.56-5.71,13.44-7.32c7.98-3.31,16.23-6.71,20.57-14.23c4.29-7.4,3.15-16.19,2.04-24.68
		c-1.04-5.13-1.15-10.4-0.33-15.56c1.82-4.68,4.46-8.99,7.8-12.73v-0.01c5.07-6.59,10.81-14.07,10.81-22.96
		C401.83,203.8,396.09,196.32,391.01,189.73z M213.53,488.15c-0.21,0.63-0.91,0.98-1.54,0.77c-0.3-0.1-0.54-0.31-0.69-0.58
		l-24.63-46.8c-3.03-5.76-10.04-8.13-15.95-5.41l-48.02,22.16c-0.61,0.28-1.33,0.02-1.61-0.59c-0.13-0.28-0.15-0.61-0.04-0.9
		l42.4-125.04c2.23,5.11,5.93,9.45,10.64,12.44c7.4,4.28,16.19,3.15,24.68,2.04c5.13-1.04,10.4-1.15,15.56-0.33
		c4.67,1.82,8.99,4.46,12.73,7.8c6.59,5.07,14.07,10.81,22.96,10.81c1.93-0.01,3.85-0.28,5.71-0.79L213.53,488.15z M378.99,456.8
		c0.19,0.46,0.04,0.99-0.34,1.3l-0.02-0.01c-0.35,0.35-0.89,0.43-1.32,0.2l-48.01-22.17c-5.91-2.73-12.93-0.34-15.96,5.42
		l-24.63,46.81c-0.2,0.45-0.68,0.71-1.17,0.64c-0.49-0.02-0.92-0.34-1.06-0.82l-30.65-90.41l14.16-41.78
		c1.01-0.76,2.01-1.52,2.99-2.27c3.75-3.34,8.06-5.98,12.73-7.8c5.16-0.82,10.44-0.71,15.56,0.33c8.49,1.1,17.27,2.24,24.68-2.04
		c4.71-3,8.41-7.33,10.64-12.44L378.99,456.8z M382.29,228.94l0.01,0.02c-4.28,4.86-7.58,10.49-9.71,16.6
		c-1.26,6.55-1.24,13.28,0.05,19.82c0.91,6.98,1.76,13.56-0.66,17.74c-2.48,4.29-8.68,6.86-15.25,9.57
		c-6.25,2.11-12.03,5.4-17.02,9.71c-4.57,4.57-7.18,10.89-9.72,17.02c-2.72,6.57-5.28,12.78-9.57,15.25
		c-4.17,2.41-10.76,1.56-17.74,0.65c-6.54-1.3-13.27-1.31-19.82-0.05c-6.11,2.13-11.75,5.43-16.6,9.71
		c-5.71,4.39-11.1,8.53-16.25,8.53c-5.16,0-10.54-4.14-16.25-8.53c-4.86-4.28-10.49-7.58-16.6-9.71c-2.65-0.67-5.38-1-8.11-0.96
		c-3.92,0.09-7.84,0.43-11.71,1.01c-6.98,0.91-13.56,1.76-17.74-0.65c-4.29-2.48-6.85-8.68-9.57-15.25
		c-2.11-6.25-5.4-12.03-9.71-17.02c-4.99-4.31-10.77-7.61-17.02-9.71c-6.57-2.72-12.78-5.28-15.25-9.57
		c-2.41-4.18-1.56-10.76-0.65-17.74c1.3-6.54,1.31-13.27,0.05-19.82c-2.13-6.12-5.43-11.76-9.72-16.61
		c-4.39-5.71-8.53-11.1-8.53-16.25s4.14-10.54,8.53-16.25c4.28-4.86,7.58-10.49,9.71-16.6c1.26-6.55,1.24-13.28-0.05-19.82
		c-0.91-6.98-1.76-13.56,0.65-17.74c2.48-4.29,8.68-6.86,15.25-9.57c6.25-2.11,12.03-5.4,17.02-9.71
		c4.31-4.99,7.61-10.77,9.71-17.02c2.72-6.57,5.28-12.78,9.57-15.25c4.18-2.41,10.76-1.56,17.74-0.65
		c6.54,1.3,13.27,1.31,19.82,0.05c6.11-2.13,11.75-5.43,16.6-9.71c5.71-4.39,11.1-8.53,16.25-8.53s10.54,4.14,16.25,8.53
		c4.86,4.28,10.49,7.58,16.6,9.71c6.55,1.26,13.28,1.24,19.82-0.05c6.98-0.91,13.57-1.76,17.74,0.65c4.29,2.48,6.85,8.68,9.57,15.25
		c2.11,6.25,5.4,12.02,9.71,17.02c4.99,4.31,10.77,7.61,17.02,9.71c6.57,2.72,12.78,5.28,15.25,9.57
		c2.41,4.18,1.56,10.76,0.66,17.74c-1.3,6.54-1.31,13.27-0.05,19.82c2.13,6.11,5.43,11.75,9.71,16.6c4.39,5.71,8.53,11.1,8.53,16.25
		C390.82,217.85,386.67,223.23,382.29,228.94z"/>
	<path class="st0" d="M310.63,162.66c-5.62-5.61-14.72-5.61-20.33,0l-60.03,60.03l-20.56-20.56c-5.61-5.61-14.72-5.61-20.33,0
		l-10.82,10.82c-5.61,5.62-5.61,14.72,0,20.33l41.55,41.55c5.62,5.61,14.72,5.61,20.33,0l81.03-81.03c5.61-5.62,5.61-14.72,0-20.33
		L310.63,162.66z M313.68,186.03h-0.02l-81.03,81.03c-1.31,1.31-3.44,1.31-4.75,0l0,0l-41.54-41.56c-1.31-1.31-1.31-3.44,0-4.76
		l10.82-10.82c1.31-1.31,3.44-1.31,4.75,0l0,0l24.45,24.46c2.15,2.15,5.64,2.15,7.79,0l63.93-63.93c1.31-1.31,3.44-1.31,4.75,0l0,0
		l10.82,10.82C314.99,182.58,314.99,184.72,313.68,186.03z"/>
</g>
</svg>
