<?xml version="1.0" encoding="utf-8"?>
<!-- Generator: Adobe Illustrator 28.1.0, SVG Export Plug-In . SVG Version: 6.00 Build 0)  -->
<svg version="1.1" id="Capa_1" xmlns="http://www.w3.org/2000/svg" xmlns:xlink="http://www.w3.org/1999/xlink" x="0px" y="0px"
	 viewBox="0 0 500 500" style="enable-background:new 0 0 500 500;" xml:space="preserve">
<style type="text/css">
	.st0{fill:#FFFFFF;}
</style>
<path class="st0" d="M438.27,301.99h-68.05v-27.93h15.6c14.44,0,26.2-11.75,26.2-26.2c0-14.44-11.75-26.2-26.2-26.2h-15.6
	l-0.01-64.46c0-14.44-11.75-26.2-26.2-26.2c-14.44,0-26.2,11.75-26.2,26.2v64.46h-41.84V157.2c0-14.44-11.75-26.2-26.2-26.2
	c-14.44,0-26.2,11.75-26.2,26.2v64.46H181.7V157.2c0-14.44-11.75-26.2-26.2-26.2c-14.44,0-26.2,11.75-26.2,26.2v64.46h-22.65
	c-14.44,0-26.2,11.75-26.2,26.2c0,14.44,11.75,26.2,26.2,26.2h24.13V302H61.71c-14.44,0-26.2,11.75-26.2,26.2l0,0
	c0,14.44,11.75,26.2,26.2,26.2h69.06v27.91h-24.12c-14.44,0-26.2,11.75-26.2,26.2s11.75,26.2,26.2,26.2h24.13v39.22
	c0,14.44,11.75,26.2,26.2,26.2c14.44,0,26.2-11.75,26.2-26.2v-39.22h40.39v39.22c0,14.44,11.75,26.2,26.2,26.2
	c14.44,0,26.2-11.75,26.2-26.2v-39.22h40.38l0.02,39.22c0,14.44,11.75,26.2,26.2,26.2c14.44,0,26.2-11.75,26.2-26.2v-39.22h17.06
	c14.44,0,26.2-11.75,26.2-26.2v-0.01c0-14.44-11.75-26.2-26.2-26.2h-15.6v-27.92h68.05c14.44,0,26.2-11.75,26.2-26.2
	C464.47,313.74,452.72,301.99,438.27,301.99z M129.76,346.65H61.71c-10.18,0-18.46-8.29-18.46-18.47c0-10.17,8.29-18.46,18.46-18.46
	h68.05V346.65z M175.43,473.94c0,10.18-8.29,18.46-18.46,18.46c-10.18,0-18.47-8.29-18.47-18.46v-36.63h36.93V473.94z
	 M361.02,473.94c0,10.18-8.29,18.46-18.47,18.46c-10.18,0-18.46-8.29-18.46-18.47l-0.01-36.63h36.93V473.94z M317.82,347.95h-41.85
	h-52.4h-40.39v-36.93h40.39l0,0h52.4l0,0h41.85V347.95z M317.82,355.68v26.62h-41.85v-26.62H317.82z M223.56,355.68v26.62h-40.39
	v-26.62H223.56z M275.97,303.28v-29.22h41.85v29.22H275.97L275.97,303.28z M325.54,157.2c0-10.18,8.29-18.47,18.46-18.47
	c10.18,0,18.47,8.29,18.47,18.47l0.01,64.46h-36.93V157.2z M317.81,229.4h52.41h15.6c10.18,0,18.46,8.29,18.46,18.46
	s-8.29,18.46-18.46,18.46H275.97V229.4H317.81z M231.31,157.2c0-10.18,8.29-18.47,18.46-18.47c10.18,0,18.47,8.29,18.47,18.47v64.46
	v52.4v29.22h-36.93v-29.22v-52.4L231.31,157.2L231.31,157.2z M137.05,157.2c0-10.18,8.29-18.47,18.47-18.47
	c10.18,0,18.46,8.29,18.46,18.47v64.46h-36.93C137.05,221.66,137.05,157.2,137.05,157.2z M88.18,247.86
	c0-10.18,8.29-18.47,18.46-18.47h22.67h52.4h41.85v36.93H106.64C96.46,266.32,88.18,258.04,88.18,247.86z M223.56,274.06v29.22
	h-40.39v-29.22H223.56z M138.51,274.06h36.93v29.21v52.4v26.62h-36.93V274.06z M106.64,426.97c-10.18,0-18.46-8.29-18.46-18.47
	c0-10.18,8.29-18.47,18.46-18.47h24.13v0.01h52.4v-0.01h40.39v36.93L106.64,426.97L106.64,426.97z M268.23,473.93
	c0,10.18-8.29,18.46-18.47,18.46s-18.46-8.29-18.46-18.46v-39.22v-52.4v-26.62h36.93v26.62v52.41V473.93z M385.82,390.04
	c10.18,0,18.46,8.29,18.46,18.46v0.01c0,10.18-8.29,18.46-18.46,18.46H275.97v-36.93h41.85v0.01h52.4v-0.01L385.82,390.04
	L385.82,390.04L385.82,390.04z M362.48,382.31h-36.93v-26.62v-52.4v-29.21h36.93V302v52.4V382.31z M438.27,346.65h-68.05v-36.93
	h68.05c10.18,0,18.46,8.28,18.46,18.46C456.74,338.37,448.45,346.65,438.27,346.65z"/>
</svg>
