<?xml version="1.0" encoding="utf-8"?>
<!-- Generator: Adobe Illustrator 28.1.0, SVG Export Plug-In . SVG Version: 6.00 Build 0)  -->
<svg version="1.1" id="Capa_1" xmlns="http://www.w3.org/2000/svg" xmlns:xlink="http://www.w3.org/1999/xlink" x="0px" y="0px"
	 viewBox="0 0 500 500" style="enable-background:new 0 0 500 500;" xml:space="preserve">
<style type="text/css">
	.st0{fill:#FFFFFF;}
</style>
<g>
	<path class="st0" d="M446.85,271.99c11.36-29.81,0.21-64.11-26.5-81.55c-10.91-7.12-18.79-17.97-22.2-30.55
		c-8.34-30.79-37.55-52-69.37-50.39c-13,0.65-25.76-3.49-35.91-11.68l0,0c-24.84-20.01-60.89-20-85.74,0
		c-10.15,8.18-22.89,12.32-35.92,11.68c-31.84-1.58-61.04,19.6-69.38,50.4c-3.4,12.57-11.28,23.42-22.2,30.55
		C52.92,207.89,41.78,242.19,53.14,272c4.64,12.18,4.64,25.58,0,37.76c-11.36,29.81-0.22,64.11,26.49,81.55
		c10.91,7.12,18.79,17.97,22.2,30.55c8.34,30.8,37.51,52.01,69.38,50.39c13.02-0.61,25.76,3.49,35.91,11.67
		c12.43,10.01,27.65,15.01,42.87,15.01s30.46-5.01,42.87-15.01c10.15-8.18,22.92-12.29,35.91-11.67
		c31.86,1.62,61.05-19.6,69.38-50.41c3.4-12.57,11.28-23.42,22.2-30.55c26.71-17.44,37.86-51.74,26.5-81.55
		C442.22,297.59,442.22,284.17,446.85,271.99z M432.54,315.21c8.82,23.13,0.16,49.75-20.57,63.29
		c-14.06,9.18-24.22,23.15-28.6,39.36c-6.47,23.9-29.1,40.32-53.83,39.12c-16.75-0.85-33.2,4.5-46.28,15.04
		c-19.28,15.53-47.26,15.53-66.54,0c-12.18-9.82-27.29-15.12-42.87-15.12c-1.13,0-2.27,0.03-3.41,0.08
		c-24.68,1.22-47.37-15.21-53.83-39.11c-4.39-16.2-14.54-30.19-28.6-39.36c-20.73-13.54-29.38-40.15-20.56-63.29
		c5.97-15.69,5.97-32.97,0-48.66c-8.82-23.13-0.17-49.75,20.56-63.28c14.06-9.18,24.22-23.15,28.6-39.36
		c6.47-23.9,29.1-40.35,53.83-39.11c16.77,0.84,33.21-4.5,46.29-15.05c19.27-15.53,47.25-15.53,66.53,0
		c13.08,10.54,29.5,15.89,46.29,15.05c24.71-1.22,47.37,15.21,53.83,39.11c4.39,16.2,14.54,30.18,28.6,39.35
		c20.73,13.54,29.38,40.15,20.57,63.29C426.56,282.23,426.56,299.52,432.54,315.21z"/>
	<path class="st0" d="M80.21,242.19c0.1,0.02,0.19,0.04,0.29,0.04c0.59,0,1.11-0.4,1.24-0.99c1.11-4.82,2.89-9.46,5.3-13.78
		c0.34-0.61,0.13-1.4-0.5-1.74c-0.61-0.34-1.4-0.13-1.74,0.5c-2.52,4.53-4.39,9.39-5.56,14.44
		C79.09,241.36,79.53,242.04,80.21,242.19z"/>
	<path class="st0" d="M85.03,301.87c0.08,0.02,0.15,0.02,0.23,0.02c0.6,0,1.14-0.43,1.25-1.04c0.6-3.28,0.92-6.63,0.92-9.96
		c0-1.83-0.09-3.67-0.28-5.5c-0.07-0.7-0.68-1.2-1.4-1.14c-0.7,0.07-1.22,0.69-1.14,1.4c0.18,1.74,0.26,3.5,0.26,5.25
		c0,3.18-0.3,6.38-0.87,9.5C83.87,301.08,84.32,301.75,85.03,301.87z"/>
	<path class="st0" d="M104.06,372.55c-1.69-1.11-3.34-2.32-4.89-3.61c-0.55-0.45-1.35-0.38-1.79,0.17
		c-0.45,0.54-0.38,1.34,0.16,1.79c1.63,1.35,3.36,2.63,5.13,3.79c2.43,1.58,4.74,3.39,6.87,5.36c0.24,0.23,0.56,0.34,0.86,0.34
		c0.34,0,0.68-0.14,0.94-0.41c0.48-0.51,0.45-1.32-0.07-1.8C109.03,376.09,106.6,374.2,104.06,372.55z"/>
	<path class="st0" d="M150.29,146.54c0.22,0,0.44-0.05,0.65-0.17c4.27-2.5,8.86-4.38,13.65-5.58c0.68-0.17,1.1-0.86,0.93-1.55
		c-0.17-0.68-0.86-1.1-1.55-0.93c-5.02,1.26-9.84,3.22-14.33,5.85c-0.61,0.36-0.81,1.13-0.46,1.75
		C149.42,146.31,149.85,146.54,150.29,146.54z"/>
	<path class="st0" d="M107.82,206.53c0.56-0.43,0.66-1.23,0.23-1.79c-0.43-0.56-1.23-0.66-1.79-0.23c-1.15,0.9-2.36,1.77-3.58,2.56
		c-3.05,1.99-5.91,4.29-8.49,6.84c-0.5,0.5-0.51,1.31-0.02,1.8c0.25,0.25,0.58,0.38,0.91,0.38c0.32,0,0.65-0.13,0.89-0.37
		c2.47-2.42,5.19-4.62,8.1-6.51C105.34,208.38,106.6,207.48,107.82,206.53z"/>
	<path class="st0" d="M82.26,272.1c0.14,0,0.29-0.03,0.43-0.07c0.67-0.23,1.01-0.96,0.77-1.63c-1.67-4.66-2.67-9.53-2.95-14.45
		c-0.05-0.7-0.67-1.24-1.35-1.2c-0.7,0.05-1.24,0.65-1.2,1.35c0.31,5.17,1.35,10.28,3.1,15.17C81.25,271.78,81.74,272.1,82.26,272.1
		z"/>
	<path class="st0" d="M124.95,180.03c-0.67-0.23-1.4,0.12-1.63,0.77c-1.65,4.66-3.94,9.06-6.84,13.08
		c-0.41,0.57-0.28,1.37,0.29,1.78c0.23,0.16,0.49,0.24,0.75,0.24c0.4,0,0.78-0.18,1.04-0.53c3.03-4.21,5.45-8.83,7.17-13.72
		C125.96,180.99,125.61,180.26,124.95,180.03z"/>
	<path class="st0" d="M80.43,328.89c0-4.52,0.59-9.04,1.77-13.41c0.18-0.68-0.23-1.38-0.9-1.56c-0.68-0.16-1.38,0.23-1.56,0.9
		c-1.22,4.59-1.85,9.32-1.85,14.07c0,0.43,0,0.87,0.02,1.31c0.02,0.69,0.59,1.24,1.28,1.24c0.01,0,0.02,0,0.03,0
		c0.7-0.02,1.26-0.6,1.24-1.31C80.43,329.71,80.42,329.3,80.43,328.89z"/>
	<path class="st0" d="M82.88,344.67c-0.22-0.67-0.92-1.04-1.6-0.83c-0.68,0.22-1.04,0.93-0.83,1.6c1.57,4.94,3.83,9.64,6.72,13.94
		c0.24,0.37,0.65,0.57,1.06,0.57c0.24,0,0.5-0.07,0.71-0.22c0.59-0.4,0.74-1.19,0.35-1.77C86.52,353.87,84.37,349.39,82.88,344.67z"
		/>
	<path class="st0" d="M121.03,390.17c-0.36-0.6-1.14-0.8-1.75-0.43c-0.6,0.36-0.8,1.14-0.44,1.75c2.48,4.12,4.38,8.57,5.67,13.35
		l0.07,0.26c0.14,0.52,0.56,0.77,1.05,0.77c0.15,0,0.31-0.02,0.47-0.06c0.68-0.19,1.03-1.08,0.84-1.77
		C125.61,399.17,123.63,394.5,121.03,390.17z"/>
	<path class="st0" d="M384.46,200.17c0.25,0.28,0.59,0.41,0.95,0.41c0.31,0,0.61-0.11,0.86-0.33c0.52-0.48,0.56-1.28,0.09-1.8
		c-3.32-3.67-6.11-7.78-8.27-12.23c-0.31-0.63-1.06-0.89-1.7-0.59c-0.63,0.31-0.9,1.07-0.59,1.7
		C378.06,192.01,380.98,196.32,384.46,200.17z"/>
	<path class="st0" d="M179.26,139.27l0.58,0.03c0.91,0.05,1.82,0.06,2.73,0.06c4.06,0,8.13-0.46,12.09-1.35
		c0.68-0.15,1.12-0.84,0.96-1.53c-0.15-0.68-0.83-1.12-1.53-0.96c-4.62,1.04-9.34,1.47-14.14,1.22l-0.6-0.03
		c-0.73-0.06-1.3,0.52-1.32,1.22C178.01,138.65,178.56,139.24,179.26,139.27z"/>
	<path class="st0" d="M418.38,247.04c0.07,0.65,0.63,1.13,1.27,1.13c0.05,0,0.1,0,0.14-0.01c0.7-0.08,1.21-0.71,1.13-1.41
		c-0.59-5.15-1.89-10.19-3.89-14.98c-0.27-0.65-1.02-0.95-1.67-0.68c-0.65,0.27-0.95,1.02-0.68,1.67
		C416.58,237.32,417.83,242.13,418.38,247.04z"/>
	<path class="st0" d="M415.32,307.75c0.13,0,0.25-0.02,0.37-0.05c0.68-0.21,1.05-0.92,0.85-1.59c-1.44-4.73-2.21-9.64-2.27-14.58
		c-0.01-0.7-0.58-1.26-1.28-1.26c-0.01,0-0.01,0-0.02,0c-0.7,0.01-1.27,0.59-1.26,1.29c0.06,5.19,0.86,10.33,2.38,15.3
		C414.26,307.39,414.77,307.75,415.32,307.75z"/>
	<path class="st0" d="M340.18,142.53c4.63,1.74,8.98,4.12,12.95,7.09c0.23,0.17,0.5,0.25,0.77,0.25c0.39,0,0.77-0.18,1.03-0.51
		c0.42-0.57,0.31-1.36-0.26-1.78c-4.16-3.11-8.73-5.61-13.58-7.43c-0.66-0.24-1.4,0.08-1.64,0.75
		C339.18,141.55,339.51,142.29,340.18,142.53z"/>
	<path class="st0" d="M370.67,172.97c0.19,0.51,0.68,0.83,1.2,0.83c0.15,0,0.3-0.03,0.45-0.08c0.66-0.25,0.99-0.98,0.75-1.64
		c-1.83-4.86-4.33-9.42-7.45-13.56c-0.42-0.56-1.22-0.68-1.78-0.25c-0.57,0.42-0.68,1.22-0.25,1.78
		C366.53,163.98,368.92,168.33,370.67,172.97z"/>
	<path class="st0" d="M310.57,139.03c2.88,0.32,5.81,0.41,8.73,0.26c2.18-0.11,4.34-0.08,6.47,0.08c0.04,0,0.06,0,0.1,0
		c0.66,0,1.22-0.51,1.27-1.18c0.05-0.7-0.48-1.31-1.18-1.37c-2.23-0.17-4.5-0.2-6.78-0.08c-2.78,0.14-5.57,0.05-8.32-0.25
		c-0.69-0.06-1.33,0.43-1.4,1.13C309.36,138.32,309.86,138.95,310.57,139.03z"/>
	<path class="st0" d="M264.32,117.86c4.74,1.4,9.26,3.47,13.42,6.14c0.22,0.14,0.45,0.21,0.68,0.21c0.42,0,0.83-0.21,1.07-0.59
		c0.38-0.59,0.21-1.38-0.38-1.77c-4.37-2.81-9.1-4.97-14.08-6.44c-0.68-0.2-1.39,0.19-1.58,0.86
		C263.26,116.95,263.65,117.66,264.32,117.86z"/>
	<path class="st0" d="M234.75,117.82c0.12,0,0.23-0.02,0.35-0.05c4.7-1.35,9.56-2.04,14.62-2.04c0.7,0,1.2-0.57,1.2-1.28
		s-0.65-1.28-1.35-1.28c-5.13,0-10.24,0.72-15.16,2.14c-0.68,0.2-1.07,0.9-0.87,1.58C233.69,117.45,234.2,117.82,234.75,117.82z"/>
	<path class="st0" d="M295.57,135.17c0.16,0.06,0.32,0.1,0.49,0.1c0.5,0,0.97-0.3,1.18-0.78c0.27-0.65-0.04-1.4-0.68-1.67
		c-4.57-1.9-8.83-4.44-12.69-7.54c-0.55-0.44-1.35-0.35-1.79,0.19s-0.36,1.35,0.19,1.79C286.31,130.52,290.78,133.17,295.57,135.17z
		"/>
	<path class="st0" d="M208.5,132.64c0.21,0,0.42-0.05,0.62-0.16c2.72-1.51,5.32-3.27,7.74-5.21c1.53-1.23,3.14-2.39,4.79-3.43
		c0.59-0.38,0.77-1.16,0.4-1.77c-0.38-0.59-1.17-0.77-1.77-0.4c-1.73,1.1-3.42,2.31-5.02,3.6c-2.31,1.86-4.79,3.53-7.38,4.97
		c-0.61,0.34-0.84,1.12-0.5,1.74C207.62,132.4,208.05,132.64,208.5,132.64z"/>
	<path class="st0" d="M395.08,372.53c-4.29,2.8-8.16,6.19-11.5,10.07c-0.46,0.53-0.41,1.34,0.14,1.8c0.24,0.21,0.54,0.31,0.84,0.31
		c0.36,0,0.71-0.15,0.96-0.44c3.19-3.69,6.88-6.93,11-9.62l-0.57-1.15L395.08,372.53z"/>
	<path class="st0" d="M376.92,395c-0.64-0.29-1.4-0.01-1.69,0.63c-1.23,2.7-2.25,5.53-3.03,8.39c-0.55,2.03-1.22,4.03-2,5.95
		c-0.26,0.65,0.05,1.4,0.7,1.67c0.15,0.06,0.32,0.09,0.48,0.09c0.5,0,0.98-0.3,1.18-0.8c0.82-2.03,1.52-4.12,2.1-6.24
		c0.74-2.73,1.71-5.43,2.89-8.01C377.84,396.04,377.56,395.28,376.92,395z"/>
	<path class="st0" d="M362.78,422.73c-3.06,3.87-6.66,7.29-10.7,10.16c-0.58,0.41-0.71,1.21-0.3,1.77c0.25,0.35,0.64,0.54,1.04,0.54
		c0.25,0,0.51-0.08,0.74-0.23c4.23-3.01,8.01-6.59,11.22-10.65c0.44-0.55,0.34-1.35-0.21-1.79
		C364.01,422.09,363.21,422.18,362.78,422.73z"/>
	<path class="st0" d="M281.25,455.29c-3.94,3.02-8.27,5.45-12.86,7.22c-0.66,0.25-0.98,0.99-0.73,1.65c0.2,0.5,0.68,0.81,1.19,0.81
		c0.15,0,0.31-0.03,0.46-0.08c4.83-1.86,9.37-4.42,13.5-7.58c0.56-0.43,0.67-1.22,0.23-1.78
		C282.61,454.96,281.82,454.85,281.25,455.29z"/>
	<path class="st0" d="M309.23,442.9c-5.14,0.69-10.15,2.12-14.89,4.22c-0.65,0.29-0.94,1.04-0.65,1.68
		c0.22,0.48,0.68,0.76,1.17,0.76c0.17,0,0.35-0.04,0.51-0.11c4.52-2.01,9.29-3.37,14.19-4.03c0.7-0.1,1.19-0.74,1.09-1.43
		C310.57,443.29,309.94,442.77,309.23,442.9z"/>
	<path class="st0" d="M338.97,439.65c-4.67,1.62-9.55,2.57-14.48,2.81c-0.7,0.04-1.24,0.63-1.22,1.33c0.04,0.68,0.59,1.22,1.27,1.22
		c0.02,0,0.05,0,0.06,0c5.19-0.25,10.29-1.24,15.19-2.94c0.67-0.23,1.02-0.96,0.78-1.62C340.36,439.78,339.64,439.43,338.97,439.65z
		"/>
	<path class="st0" d="M419.22,319.78c-0.69,0.1-1.18,0.76-1.07,1.45c0.38,2.52,0.57,5.09,0.57,7.64c0,2.38-0.16,4.77-0.49,7.11
		c-0.1,0.69,0.39,1.34,1.09,1.44c0.06,0.01,0.12,0.01,0.18,0.01c0.63,0,1.17-0.46,1.26-1.1c0.34-2.46,0.51-4.97,0.51-7.47
		c0-2.67-0.2-5.38-0.59-8.01C420.57,320.16,419.93,319.68,419.22,319.78z"/>
	<path class="st0" d="M419.41,260.75c-0.7-0.12-1.35,0.34-1.48,1.04c-0.57,3.27-1.46,6.51-2.65,9.63c-0.59,1.56-1.13,3.17-1.58,4.78
		c-0.19,0.68,0.21,1.38,0.88,1.57c0.12,0.04,0.23,0.05,0.34,0.05c0.56,0,1.07-0.37,1.22-0.94c0.43-1.54,0.94-3.08,1.5-4.57
		c1.24-3.27,2.18-6.67,2.78-10.1C420.58,261.53,420.11,260.87,419.41,260.75z"/>
	<path class="st0" d="M415.85,349.54c-0.65-0.3-1.4,0-1.68,0.64c-2.02,4.52-4.66,8.72-7.87,12.48c-0.46,0.54-0.39,1.34,0.14,1.8
		c0.24,0.21,0.53,0.31,0.83,0.31c0.36,0,0.72-0.15,0.97-0.45c3.36-3.94,6.13-8.35,8.25-13.09
		C416.78,350.57,416.49,349.82,415.85,349.54z"/>
	<path class="st0" d="M408.1,220.55c0.28,0,0.57-0.09,0.8-0.29c0.55-0.44,0.63-1.24,0.19-1.79c-3.25-4.03-7.07-7.57-11.35-10.54
		c-0.58-0.41-1.38-0.25-1.77,0.32c-0.41,0.58-0.26,1.38,0.32,1.77c4.07,2.83,7.71,6.2,10.82,10.04
		C407.36,220.39,407.73,220.55,408.1,220.55z"/>
	<path class="st0" d="M254.01,465.83c-4.91,0.41-9.91,0.14-14.73-0.84c-0.69-0.14-1.36,0.31-1.5,1c-0.14,0.69,0.31,1.36,1,1.5
		c3.54,0.71,7.17,1.07,10.79,1.07c1.55,0,3.12-0.06,4.66-0.2c0.7-0.06,1.22-0.68,1.16-1.38
		C255.34,466.29,254.69,465.78,254.01,465.83z"/>
	<path class="st0" d="M139.37,155.54c0.49-0.51,0.46-1.31-0.05-1.8c-0.51-0.49-1.31-0.46-1.8,0.05c-3.57,3.77-6.57,8.02-8.93,12.64
		c-0.32,0.63-0.07,1.4,0.56,1.72c0.19,0.1,0.39,0.14,0.58,0.14c0.46,0,0.91-0.25,1.13-0.69
		C133.11,163.2,135.97,159.15,139.37,155.54z"/>
	<path class="st0" d="M168.79,441.85c-4.87-0.8-9.61-2.3-14.08-4.43c-0.64-0.31-1.4-0.04-1.7,0.6c-0.31,0.64-0.04,1.4,0.59,1.7
		c4.68,2.24,9.65,3.81,14.76,4.65c0.07,0.01,0.14,0.02,0.21,0.02c0.61,0,1.15-0.44,1.26-1.07
		C169.96,442.63,169.48,441.97,168.79,441.85z"/>
	<path class="st0" d="M199.01,444.93c-4.95-1.56-10.09-2.4-15.27-2.51c-0.74-0.01-1.29,0.54-1.31,1.25
		c-0.02,0.7,0.54,1.29,1.25,1.31c4.94,0.11,9.84,0.91,14.56,2.4c0.13,0.04,0.25,0.06,0.38,0.06c0.54,0,1.04-0.35,1.22-0.89
		C200.05,445.86,199.67,445.15,199.01,444.93z"/>
	<path class="st0" d="M132.96,417.92c-0.37-0.59-1.16-0.78-1.76-0.41c-0.6,0.37-0.78,1.16-0.41,1.76c2.73,4.4,6.08,8.38,9.94,11.85
		c0.24,0.22,0.55,0.32,0.86,0.32c0.35,0,0.69-0.14,0.95-0.42c0.47-0.52,0.42-1.33-0.1-1.8
		C138.76,425.92,135.57,422.12,132.96,417.92z"/>
	<path class="st0" d="M225.38,460.08c-2.99-1.58-5.85-3.45-8.5-5.58c-1.25-1.01-2.57-1.97-3.91-2.86c-0.59-0.39-1.38-0.23-1.77,0.35
		c-0.39,0.59-0.23,1.38,0.35,1.77c1.27,0.85,2.53,1.77,3.72,2.73c2.77,2.23,5.78,4.21,8.92,5.85c0.19,0.1,0.4,0.14,0.59,0.14
		c0.46,0,0.9-0.25,1.13-0.68C226.24,461.18,226,460.4,225.38,460.08z"/>
	<polygon class="st0" points="164.83,301.39 164.83,231.74 132.2,231.74 132.2,246.97 145.13,246.97 145.13,301.39 	"/>
	<path class="st0" d="M236.67,266.56c0-7.69-1.32-14.23-3.98-19.6c-2.66-5.38-6.29-9.48-10.9-12.34c-4.61-2.85-9.87-4.28-15.77-4.28
		c-5.97,0-11.26,1.43-15.87,4.28c-4.61,2.85-8.24,6.96-10.9,12.34c-2.66,5.38-3.98,11.91-3.98,19.6c0,7.7,1.32,14.23,3.98,19.6
		c2.65,5.37,6.29,9.48,10.9,12.34c4.61,2.85,9.9,4.28,15.87,4.28c5.91,0,11.16-1.42,15.77-4.28s8.24-6.97,10.9-12.34
		C235.34,280.79,236.67,274.26,236.67,266.56z M215.47,278.26c-0.93,2.95-2.21,5.09-3.83,6.42c-1.63,1.32-3.5,1.99-5.62,1.99
		c-2.13,0-4-0.66-5.62-1.99c-1.63-1.32-2.92-3.47-3.88-6.42c-0.96-2.95-1.44-6.85-1.44-11.69c0-4.91,0.48-8.82,1.44-11.74
		c0.96-2.92,2.25-5.04,3.88-6.37c1.62-1.32,3.49-1.99,5.62-1.99s4,0.67,5.62,1.99c1.62,1.32,2.9,3.45,3.83,6.37
		c0.93,2.92,1.4,6.84,1.4,11.74C216.87,271.41,216.4,275.31,215.47,278.26z"/>
	<path class="st0" d="M243.43,266.56c0,7.7,1.32,14.23,3.98,19.6c2.65,5.37,6.29,9.48,10.9,12.34c4.61,2.85,9.9,4.28,15.87,4.28
		c5.91,0,11.16-1.42,15.77-4.28c4.61-2.85,8.24-6.97,10.9-12.34c2.66-5.38,3.98-11.91,3.98-19.6c0-7.69-1.32-14.23-3.98-19.6
		c-2.66-5.38-6.29-9.48-10.9-12.34c-4.61-2.85-9.87-4.28-15.77-4.28c-5.97,0-11.26,1.43-15.87,4.28c-4.61,2.85-8.24,6.96-10.9,12.34
		C244.76,252.34,243.43,258.87,243.43,266.56z M264.67,254.83c0.96-2.92,2.25-5.04,3.88-6.37c1.62-1.32,3.49-1.99,5.62-1.99
		s4,0.67,5.62,1.99c1.62,1.32,2.9,3.45,3.83,6.37c0.93,2.92,1.4,6.84,1.4,11.74c0,4.84-0.46,8.74-1.4,11.69
		c-0.93,2.95-2.21,5.09-3.83,6.42c-1.63,1.32-3.5,1.99-5.62,1.99c-2.13,0-4-0.66-5.62-1.99c-1.63-1.32-2.92-3.47-3.88-6.42
		c-0.96-2.95-1.44-6.85-1.44-11.69C263.23,261.65,263.71,257.75,264.67,254.83z"/>
	<polygon class="st0" points="335.48,290.7 365.98,246.06 356.79,246.06 326.31,290.7 	"/>
	<path class="st0" d="M320.44,251.22c-0.98,1.83-1.47,4.03-1.47,6.63s0.49,4.82,1.47,6.66c0.97,1.86,2.34,3.26,4.08,4.24
		c1.75,0.97,3.7,1.47,5.87,1.47c2.22,0,4.18-0.49,5.9-1.47c1.72-0.98,3.08-2.4,4.08-4.28c1-1.86,1.49-4.08,1.49-6.63
		c0-2.59-0.5-4.8-1.49-6.63c-1-1.83-2.36-3.24-4.08-4.24c-1.72-1-3.68-1.49-5.9-1.49c-2.17,0-4.12,0.5-5.87,1.49
		C322.78,247.97,321.42,249.39,320.44,251.22z M327.74,253.01c0.74-0.97,1.65-1.47,2.71-1.47c1.06,0,1.95,0.49,2.65,1.47
		c0.7,0.98,1.05,2.59,1.05,4.84c0,2.25-0.35,3.87-1.05,4.84c-0.7,0.97-1.58,1.47-2.65,1.47s-1.97-0.49-2.71-1.47
		c-0.75-0.98-1.12-2.59-1.12-4.84C326.62,255.6,326.99,253.98,327.74,253.01z"/>
	<path class="st0" d="M371.87,285.56c1-1.85,1.5-4.07,1.5-6.66c0-2.59-0.5-4.8-1.5-6.63c-1-1.83-2.36-3.24-4.08-4.24
		c-1.72-1-3.69-1.49-5.9-1.49c-2.22,0-4.18,0.5-5.9,1.49c-1.72,1-3.07,2.41-4.05,4.24c-0.98,1.83-1.47,4.03-1.47,6.63
		c0,2.59,0.49,4.82,1.47,6.66c0.98,1.86,2.33,3.26,4.05,4.24c1.72,0.97,3.68,1.47,5.9,1.47c2.21,0,4.18-0.49,5.9-1.47
		C369.52,288.82,370.87,287.42,371.87,285.56z M364.57,283.74c-0.72,0.97-1.62,1.47-2.67,1.47c-1.02,0-1.9-0.49-2.65-1.47
		c-0.74-0.98-1.12-2.59-1.12-4.84c0-2.25,0.37-3.87,1.12-4.84c0.75-0.97,1.63-1.47,2.65-1.47c1.06,0,1.95,0.49,2.67,1.47
		c0.72,0.98,1.08,2.59,1.08,4.84C365.65,281.15,365.29,282.77,364.57,283.74z"/>
	<path class="st0" d="M148.29,335.1c1.31-1.29,2.85-2.29,4.64-2.99c1.78-0.7,3.75-1.05,5.9-1.05c2.15,0,4.14,0.41,5.99,1.21
		c1.84,0.8,3.5,2.01,4.99,3.61l4.93-4.64c-1.92-2.27-4.27-3.98-7.04-5.13s-5.85-1.73-9.21-1.73c-3.17,0-6.09,0.52-8.74,1.56
		c-2.66,1.04-4.99,2.5-6.98,4.4c-2,1.9-3.54,4.13-4.64,6.72c-1.09,2.58-1.64,5.4-1.64,8.45c0,3.05,0.55,5.87,1.64,8.45
		c1.1,2.58,2.63,4.83,4.61,6.72c1.97,1.9,4.3,3.37,6.98,4.4c2.67,1.04,5.58,1.56,8.71,1.56c3.4,0,6.49-0.59,9.28-1.77
		c2.77-1.17,5.12-2.87,7.04-5.11l-4.93-4.69c-1.49,1.64-3.15,2.86-4.99,3.67s-3.84,1.21-5.99,1.21c-2.15,0-4.12-0.35-5.9-1.05
		c-1.78-0.7-3.32-1.7-4.64-2.99c-1.31-1.3-2.33-2.82-3.05-4.57c-0.73-1.76-1.09-3.69-1.09-5.81c0-2.12,0.36-4.05,1.09-5.81
		C145.96,337.92,146.98,336.4,148.29,335.1z"/>
	<path class="st0" d="M181.65,324.95v23.18c0,5.99,1.59,10.56,4.78,13.73s7.6,4.75,13.23,4.75c5.59,0,9.99-1.58,13.17-4.75
		c3.19-3.17,4.78-7.74,4.78-13.73v-23.18h-7.51v22.88c0,4.22-0.9,7.29-2.7,9.21c-1.8,1.92-4.36,2.87-7.68,2.87
		c-3.32,0-5.9-0.96-7.72-2.87c-1.82-1.92-2.73-4.99-2.73-9.21v-22.88H181.65z"/>
	<polygon class="st0" points="235.92,348.3 255.75,348.3 255.75,342.03 235.92,342.03 235.92,331.35 258.28,331.35 258.28,324.95 
		228.29,324.95 228.29,366.03 259.1,366.03 259.1,359.63 235.92,359.63 	"/>
	<path class="st0" d="M294.48,366.03h8.21l-9.44-13.47c0.2-0.08,0.41-0.14,0.61-0.23c2.6-1.15,4.6-2.82,6.02-4.99
		c1.4-2.17,2.12-4.76,2.12-7.77s-0.7-5.61-2.12-7.8s-3.41-3.87-6.02-5.04c-2.6-1.17-5.72-1.76-9.36-1.76h-16.9v41.07h7.63v-11.97
		h9.27c0.55,0,1.06-0.04,1.58-0.06L294.48,366.03z M291.75,333.52c1.7,1.4,2.55,3.42,2.55,6.04c0,2.58-0.85,4.59-2.55,6.04
		c-1.7,1.45-4.23,2.17-7.6,2.17h-8.92v-16.36h8.92C287.52,331.41,290.05,332.11,291.75,333.52z"/>
	<path class="st0" d="M350.16,337.07c-1.1-2.56-2.64-4.79-4.64-6.69c-2-1.9-4.33-3.38-7.01-4.43c-2.68-1.05-5.63-1.58-8.83-1.58
		c-3.17,0-6.11,0.53-8.8,1.58c-2.7,1.05-5.04,2.53-7.04,4.43c-2,1.9-3.54,4.12-4.64,6.69c-1.09,2.57-1.64,5.37-1.64,8.42
		s0.55,5.85,1.64,8.42c1.1,2.56,2.64,4.79,4.64,6.69c2,1.9,4.34,3.38,7.04,4.43c2.7,1.05,5.66,1.58,8.86,1.58
		c3.17,0,6.09-0.53,8.77-1.58c2.67-1.05,5.02-2.52,7.01-4.4c2-1.87,3.54-4.11,4.64-6.69c1.09-2.58,1.64-5.39,1.64-8.45
		C351.81,342.44,351.26,339.63,350.16,337.07z M343.03,351.27c-0.72,1.74-1.73,3.27-3.03,4.57c-1.29,1.31-2.82,2.31-4.57,3.03
		c-1.76,0.7-3.67,1.05-5.75,1.05c-2.07,0-3.99-0.35-5.75-1.05c-1.77-0.7-3.29-1.71-4.57-3.03c-1.29-1.31-2.3-2.85-3.03-4.61
		c-0.73-1.77-1.09-3.67-1.09-5.75c0-2.12,0.36-4.03,1.09-5.78c0.72-1.74,1.74-3.27,3.05-4.57c1.31-1.31,2.84-2.31,4.57-3.03
		c1.74-0.7,3.65-1.05,5.72-1.05c2.07,0,3.99,0.35,5.75,1.05c1.77,0.7,3.29,1.71,4.57,3.03c1.29,1.31,2.3,2.84,3.03,4.57
		s1.09,3.67,1.09,5.78C344.11,347.59,343.76,349.53,343.03,351.27z"/>
</g>
</svg>
