<?xml version="1.0" encoding="utf-8"?>
<!-- Generator: Adobe Illustrator 28.1.0, SVG Export Plug-In . SVG Version: 6.00 Build 0)  -->
<svg version="1.1" id="Capa_1" xmlns="http://www.w3.org/2000/svg" xmlns:xlink="http://www.w3.org/1999/xlink" x="0px" y="0px"
	 viewBox="0 0 500 500" style="enable-background:new 0 0 500 500;" xml:space="preserve">
<style type="text/css">
	.st0{fill:#FFFFFF;}
</style>
<g>
	<path class="st0" d="M442.93,442.6l-58.08-58.08l-0.22-0.22c-5.1-4.99-11.82-7.73-18.97-7.73c-0.01,0-0.01,0-0.02,0
		c-7.25,0-14.06,2.83-19.18,7.95l-1.64,1.64l-20.43-19.72c28.3-29.81,43.85-68.67,43.8-109.94c-0.05-42.61-16.7-82.65-46.87-112.75
		c-30.11-30.05-70.11-46.59-112.64-46.59c-0.07,0-0.14,0-0.21,0C120.5,97.3,49.03,168.95,49.13,256.91
		c0.11,87.9,71.65,159.33,159.53,159.33c0.06,0,0.14,0,0.2,0c40.43-0.05,78.54-15.06,108.04-42.38l20.47,19.75l-1.79,1.79
		l-0.48,0.48c-4.94,5.09-7.67,11.79-7.66,18.91c0,7.25,2.83,14.06,7.95,19.18l58.08,58.08l0.02,0.02
		c5.12,5.12,11.93,7.93,19.17,7.93c0.01,0,0.01,0,0.02,0c7.25-0.01,14.06-2.83,19.18-7.96l10.7-10.7l0.65-0.65
		c4.94-5.09,7.67-11.79,7.66-18.91C450.88,454.53,448.06,447.72,442.93,442.6z M208.85,405.7c-0.06,0-0.12,0-0.19,0
		c-82.06,0-148.89-66.72-148.99-148.81c-0.1-82.15,66.66-149.08,148.81-149.19c0.06,0,0.13,0,0.19,0
		c39.73,0,77.08,15.44,105.21,43.51c28.18,28.11,43.72,65.5,43.77,105.3s-15.4,77.23-43.51,105.41
		C286.05,390.1,248.65,405.65,208.85,405.7z M435.49,473.52l-11.08,11.08c-3.13,3.14-7.3,4.87-11.73,4.87h-0.01
		c-4.42,0-8.59-1.73-11.72-4.85l-58.1-58.1c-3.14-3.13-4.87-7.3-4.87-11.73s1.73-8.6,4.86-11.73l11.08-11.08
		c3.13-3.14,7.3-4.87,11.73-4.87h0.01c4.42,0,8.59,1.73,11.72,4.86l58.1,58.1c3.14,3.14,4.87,7.3,4.87,11.73
		C440.35,466.21,438.62,470.38,435.49,473.52z"/>
	<path class="st0" d="M256.07,208.26c-3.92-3.79-10.07-3.8-13.98,0l-42.28,40.9l-11.91-12.96l-0.26-0.28
		c-1.87-1.93-4.37-3.01-7.05-3.07c-2.72-0.1-5.23,0.96-7.16,2.82l-18.26,17.64c-1.91,1.89-2.96,4.41-2.98,7.1
		c-0.01,2.69,1.02,5.22,2.9,7.11l37.41,37.95c1.96,1.98,4.56,2.99,7.16,2.99c2.53,0,5.07-0.94,7.02-2.85L273.94,240l0.23-0.23
		c3.85-3.98,3.76-10.37-0.24-14.22L256.07,208.26z M199.66,297.73l-36.73-37.27l17.47-16.87l12,13.05
		c3.76,4.08,10.13,4.35,14.19,0.61l42.5-41.1l17.19,16.62L199.66,297.73z"/>
	<path class="st0" d="M208.67,126.99c-71.52,0-129.71,58.19-129.71,129.71s58.19,129.71,129.71,129.71s129.71-58.19,129.71-129.71
		S280.19,126.99,208.67,126.99z M208.67,375.87c-65.71,0-119.17-53.46-119.17-119.17s53.46-119.17,119.17-119.17
		s119.17,53.46,119.17,119.17S274.38,375.87,208.67,375.87z"/>
</g>
</svg>
