<?xml version="1.0" encoding="utf-8"?>
<!-- Generator: Adobe Illustrator 28.1.0, SVG Export Plug-In . SVG Version: 6.00 Build 0)  -->
<svg version="1.1" id="Capa_1" xmlns="http://www.w3.org/2000/svg" xmlns:xlink="http://www.w3.org/1999/xlink" x="0px" y="0px"
	 viewBox="0 0 638.9 38.6" style="enable-background:new 0 0 638.9 38.6;" xml:space="preserve">
<g id="Grupo_1" transform="translate(0 0.001)">
	<path id="Trazado_1" d="M142.3,37.7v-1.8l3.9-0.2c0.1-0.6,0.1-1,0.1-1.5c0.2-11.7,0.1-28.5-0.2-30.4c-1.2-0.5-2.5,0-3.7-0.4
		c-0.3-0.6-0.3-1.3,0.1-1.8c0.4,0,0.8-0.1,1.3-0.1c4.5,0,9.1,0,13.6,0c2.6,0,5.2,0.3,7.7,1c6.8,2.2,10.9,6.9,12.2,14
		c0.5,2.6,0.4,5.2-0.3,7.7c-1.7,6.9-7.5,12.1-14.5,13.1c-1.8,0.2-3.6,0.4-5.4,0.4c-4.2,0.1-8.4,0-12.6,0
		C143.8,37.8,143.2,37.8,142.3,37.7 M153.2,3.9c0,0.7,0,1.4,0,2.1c0,7,0,14,0,21c0,2.5,0,4.9,0,7.4c0,0.5,0.1,0.9,0.2,1.3
		c1.2,0,2.3,0,3.3,0c0.9,0,1.9-0.2,2.8-0.3c4.9-0.8,8.2-3.6,9.7-8.4c1.1-4,1.3-8.2,0.6-12.3c-0.2-1.2-0.5-2.5-1-3.7
		c-1.2-3.4-4-6-7.5-6.8c-2.4-0.6-4.9-0.8-7.3-0.7C153.6,3.7,153.4,3.8,153.2,3.9"/>
	<path id="Trazado_2" d="M496.6,19.7c-0.2,1.6-0.3,3.3-0.7,4.9c-1.1,5.5-4.9,10.2-10,12.5c-4.5,2.2-9.9,2.1-14.2-0.5
		c-5-2.7-8.5-7.6-9.4-13.2c-0.6-3.5-0.4-7.1,0.8-10.5c1.4-4.4,4.6-8.1,8.7-10.2c5.1-2.9,11.5-2.6,16.3,0.8c5,3.1,8,8.5,8.3,14.3
		c0,0.6,0,1.2,0,1.8L496.6,19.7 M469.4,19.4c-0.1,2.4,0.1,4.7,0.5,7c0.4,2.4,1.4,4.7,2.8,6.8c2.6,3.6,7.6,4.4,11.2,1.8
		c0.7-0.5,1.3-1.1,1.8-1.8c1-1.4,1.7-2.9,2.2-4.5c0.5-1.9,0.9-3.8,1-5.7c0.4-3.6,0.1-7.3-0.6-10.9c-0.5-2.3-1.4-4.4-2.9-6.3
		c-1.2-1.6-3.1-2.6-5.1-2.8c-3-0.5-6.1,0.9-7.7,3.5c-1,1.5-1.8,3.1-2.2,4.9C469.7,13.9,469.4,16.6,469.4,19.4"/>
	<path id="Trazado_3" d="M221.7,19.2c-0.1,5.1-1.2,9.4-4.2,12.9c-2.6,3.2-6.2,5.4-10.2,6.2c-3.4,0.7-7,0.1-10.1-1.5
		c-5.6-2.8-9.3-8.4-9.8-14.6c-0.4-3-0.1-6.2,0.9-9.1c2.1-6,6.2-10.1,12.3-11.8c3.7-1.1,7.7-0.6,11.1,1.2c5.4,2.7,9.1,7.8,9.8,13.8
		C221.6,17.4,221.7,18.5,221.7,19.2 M214.2,20.1c0.1-3.3-0.3-6.5-1.2-9.6c-0.5-1.7-1.3-3.3-2.5-4.7c-1.2-1.6-3.1-2.6-5.1-2.8
		c-3-0.4-5.9,0.9-7.6,3.4c-1.2,1.7-2,3.6-2.5,5.6c-1.2,5.1-1.2,10.4,0,15.4c0.4,2,1.2,3.8,2.3,5.5c2.4,3.7,7.4,4.7,11.1,2.3
		c0.9-0.6,1.7-1.4,2.3-2.4c1-1.6,1.8-3.3,2.2-5.1C214,25.2,214.3,22.7,214.2,20.1"/>
	<path id="Trazado_4" d="M453.3,3.5c-0.8,0.1-1.5,0.3-2.2,0.4c-0.9,0.1-1.6,0.8-1.6,1.7c-0.1,0.8-0.1,1.6-0.1,2.4
		c0,9.3,0,18.5,0,27.8c0.1,0.7,0,1.5-0.2,2.2c-0.7,0.4-1.5,0.2-1.9-0.5l0,0c-0.2-0.3-0.5-0.6-0.7-1C439.4,27.2,432.2,18,425,8.7
		c-0.4-0.7-0.9-1.2-1.6-1.7c-0.1,0.4-0.2,0.8-0.2,1.2c0,1.7,0,3.5,0,5.2c0,5.8,0,11.6,0,17.4c0,0.7,0,1.5,0.1,2.2
		c0.2,2,0.4,2.2,2.3,2.6c0.8,0.1,1.6,0.2,2.5,0.4c0,0.6,0.1,1.1,0.1,1.5c-0.2,0.1-0.3,0.3-0.4,0.3c-3.5,0-7.1,0-10.6,0
		c-0.1,0-0.2-0.1-0.4-0.2v-1.4c0.2-0.1,0.3-0.2,0.4-0.2c0.7-0.1,1.4-0.3,2.2-0.4c0.8-0.1,1.3-0.8,1.3-1.5c0.1-0.5,0.1-0.9,0.1-1.4
		c0-9.3,0-18.5,0-27.8c0-0.3,0-0.5-0.1-0.9c-0.4-0.1-0.7-0.2-1.1-0.2c-0.9,0-1.7,0-2.4,0c-0.6-0.7-0.4-1.2-0.3-1.9
		c0.6,0,1.1-0.1,1.6-0.1c2.8,0,5.6,0,8.4,0c0.9-0.1,1.8,0.4,2.3,1.2c5.4,7,10.7,13.9,16.1,20.9c0.4,0.6,0.9,1.1,1.3,1.7
		c0.7-0.2,0.5-0.7,0.5-1c0-4.8,0-9.6,0-14.4c0-0.9,0-1.7,0-2.6c0-0.5,0-0.9-0.1-1.4c-0.2-1.3-0.6-1.7-1.9-2
		c-0.6-0.1-1.2-0.1-1.8-0.2c-0.3,0-0.6-0.1-1-0.2c-0.1-0.3-0.1-0.6-0.1-1c0-0.2,0.1-0.5,0.2-0.7c3.7-0.3,7.4-0.3,11.1,0
		c0.1,0.2,0.1,0.5,0.1,0.7C453.4,2.8,453.3,3.2,453.3,3.5"/>
	<path id="Trazado_5" d="M231.5,3.3V1.7c0.4-0.1,0.9-0.2,1.4-0.2c2.9,0,5.9,0,8.8,0c0.9,0,1.7,0.4,2.2,1.1
		c3.4,4.4,6.8,8.8,10.1,13.1c2,2.6,4.1,5.3,6.1,7.9c0.4,0.5,0.8,1,1.2,1.5c0.7-0.2,0.5-0.8,0.5-1.2c0-5.5,0-11.1,0-16.6
		c0-0.5,0-1.1-0.1-1.6c-0.2-1.3-0.5-1.7-1.8-2c-0.9-0.2-1.8-0.2-2.7-0.3c-0.2-0.6-0.2-1.2-0.1-1.8c3.7-0.3,7.5-0.3,11.2,0v1.5
		c-0.2,0.1-0.3,0.2-0.5,0.3c-0.7,0.2-1.4,0.2-2.2,0.4c-0.6,0.1-1.1,0.6-1.1,1.2c-0.1,1.1-0.2,2.1-0.2,3.2c0,9.1,0,18.2,0,27.4
		c0.1,0.7,0,1.5-0.2,2.1c-0.6,0.4-1.4,0.2-1.8-0.4c-0.4-0.5-0.7-0.9-1.1-1.4c-7.1-9.1-14.2-18.3-21.3-27.5c-0.4-0.6-0.9-1.1-1.3-1.6
		c-0.5,0.2-0.4,0.6-0.4,0.9c0,8.1,0,16.2,0,24.4c0,2.6,0.3,3,2.9,3.3c0.3,0,0.7,0.1,1,0.1c0.2,0,0.5,0.1,0.9,0.2
		c0,0.5,0.1,1.1,0.1,1.6c-0.2,0.1-0.5,0.2-0.8,0.2c-3.3,0-6.7,0-10,0c-0.1,0-0.3-0.1-0.4-0.1c-0.4-0.5-0.4-1.1-0.2-1.6
		c0.2-0.1,0.2-0.2,0.4-0.2c0.7-0.1,1.4-0.3,2.2-0.4c0.7-0.1,1.2-0.6,1.3-1.3c0.1-0.6,0.2-1.2,0.2-1.8c0-9.2,0-18.4,0-27.6
		c0-0.3-0.1-0.5-0.1-0.9c-0.4-0.1-0.8-0.2-1.3-0.2C233.3,3.6,232.4,3.5,231.5,3.3"/>
	<path id="Trazado_6" d="M303.8,35.7l3.7,0.2v1.7c-0.2,0.1-0.4,0.2-0.7,0.2c-4.6,0-9.2,0-13.8,0c-0.3,0-0.6-0.1-0.8-0.2V36
		c0.2-0.1,0.4-0.2,0.6-0.2c1.2,0,2.4-0.1,3.6-0.1c-0.8-3.1-1.9-6.1-3.3-9c-3.4-0.3-6.9-0.3-10.3,0c-1.2,2.8-2.1,5.6-2.7,8.5
		c1.3,0.7,2.7,0.4,4,0.7c0.4,0.5,0.4,1.1,0.1,1.7c-0.1,0.1-0.2,0.2-0.4,0.2c-3.2,0-6.4,0-9.6,0c-0.3,0-0.6-0.1-0.8-0.2v-1.5
		c0.2-0.1,0.3-0.2,0.4-0.2c2.6,0.1,3.8-1.3,4.6-3.6c3.3-9.7,6.6-19.4,10-29.1c0.1-0.5,0.3-1,0.6-1.5c0.2-0.3,0.4-0.4,0.8-0.5
		c0.4-0.1,0.8,0,1,0.4c0.2,0.5,0.4,1,0.6,1.5c3.9,10.1,7.7,20.3,11.6,30.4C303.2,34.2,303.5,34.9,303.8,35.7 M287.6,12.6
		c-0.1,0.2-0.2,0.4-0.4,0.6c-1.2,3.4-2.4,6.7-3.5,10.1c-0.1,0.3-0.1,0.6-0.1,0.9c2.8,0.4,5.7,0.3,8.5-0.1c-1.2-3.6-2.7-7.2-4-10.8
		C287.9,13.1,287.8,12.8,287.6,12.6"/>
	<path id="Trazado_7" d="M392.6,1.3c1-0.3,1.6-0.2,1.9,0.6c0.2,0.4,0.3,0.9,0.5,1.3c3.9,10.1,7.7,20.3,11.6,30.4
		c0.3,0.7,0.5,1.3,0.8,2l3.6,0.2c0.4,0.5,0.4,1.2,0.1,1.8c-0.2,0.1-0.4,0.1-0.6,0.2c-4.7,0-9.3,0-14,0c-0.2,0-0.4-0.1-0.6-0.2V36
		c0.6-0.5,1.3-0.2,1.9-0.3c0.7,0,1.3,0,2.1,0c0-0.3,0-0.7-0.1-1c-1-2.5-1.9-5.1-2.9-7.6c-0.1-0.2-0.2-0.3-0.3-0.5
		c-3.4-0.2-6.8-0.2-10.2,0c-1.2,2.7-2.2,5.6-2.9,8.5c0.6,0.4,1.3,0.6,2,0.6c0.7,0.1,1.4,0.1,2.3,0.2c0,0.6,0.1,1.1,0.1,1.6
		c-0.2,0.2-0.3,0.3-0.4,0.3c-3.3,0-6.6,0-10,0c-0.1,0-0.2-0.1-0.4-0.2v-1.5c0.1-0.1,0.2-0.2,0.4-0.2c0.1,0,0.1,0,0.2,0
		c2.4,0.1,3.6-1.2,4.3-3.3c3-8.9,6.1-17.7,9.1-26.6C391.5,4.3,392.1,2.8,392.6,1.3 M387,24.2c2.8,0.4,5.7,0.3,8.6-0.1
		c0-0.2,0-0.4-0.1-0.6c-1.4-3.6-2.7-7.2-4.1-10.8c0-0.1-0.1-0.1-0.1-0.1s-0.1,0-0.3,0.1C389.6,16.4,388.3,20.2,387,24.2"/>
	<path id="Trazado_8" d="M341.4,2.3h1.6c0.1,0.2,0.2,0.4,0.2,0.6c0,3.6,0,7.2,0,10.8c-0.4,0.4-1.1,0.5-1.7,0.2
		c-0.1-0.1-0.2-0.2-0.2-0.3c-0.2-0.8-0.3-1.6-0.5-2.3c-0.6-2.4-2-4.5-3.9-6.1c-2.4-2-5.6-2.7-8.6-2c-1.9,0.4-3.6,1.6-4.7,3.2
		c-0.9,1.3-1.6,2.8-1.9,4.4c-1,4-1.3,8.2-1,12.3c0.1,1.7,0.3,3.4,0.6,5.1c0.2,1.5,0.8,3,1.7,4.2c1.4,2.2,3.6,3.6,6.2,4
		c1.3,0.2,2.7,0,3.9-0.5c4.3-1.6,7.2-4.5,7.9-9.2c0.1-0.9,0.3-1.7,0.4-2.5c0.2-0.1,0.4-0.2,0.6-0.2c0.3,0,0.6,0,0.9,0
		c0.1,0.2,0.3,0.3,0.3,0.4c0.2,4.1,0,8.2,0.1,12.3c-0.6,0.3-1.2,0.3-1.8,0.2c-0.4-0.7-0.3-1.7-1.2-2.2c-0.7,0-1.3,0.3-1.8,0.7
		c-0.8,0.5-1.6,1-2.4,1.4c-3.3,1.9-7.3,2.2-10.8,0.8c-6.1-2.4-10.4-6.7-11.7-13.1c-1.5-7.3,0.1-13.9,5.6-19.2
		c3.3-3.4,8.1-5,12.8-4.4c2,0.3,3.9,1,5.6,2c0.7,0.4,1.4,0.8,2.1,1.2c0.8,0.4,1.2,0.2,1.5-0.7C341.3,3.1,341.3,2.8,341.4,2.3"/>
	<path id="Trazado_9" d="M366.9,3.6c-0.3,2-0.4,24.4-0.2,30.8c0,0.4,0.1,0.8,0.2,1.3l3.4,0.1c0.4,0.5,0.5,1.1,0.2,1.7
		c-0.1,0.1-0.2,0.2-0.4,0.2c-4.7,0-9.3,0-14,0c-0.1,0-0.2-0.1-0.4-0.2c0-0.5-0.1-1-0.1-1.5c0.2-0.1,0.4-0.2,0.6-0.2
		c1.1,0,2.1-0.1,3.1-0.1c0.6-0.7,0.4-1.4,0.4-2c0-5.7,0-11.3,0-17c0-3.7,0-7.3,0-11c0-0.7-0.1-1.3-0.1-2.1l-3.9-0.2V1.8
		c0.2-0.1,0.4-0.2,0.5-0.2c1.3,0,2.5,0,3.8,0c2.9,0,5.7,0,8.6,0c0.6,0,1.2,0.1,1.9,0.1c0,0.6,0.1,1.1,0.1,1.6
		c-0.2,0.1-0.4,0.2-0.6,0.3C369,3.6,368,3.6,366.9,3.6"/>
</g>
<rect y="18.5" width="108" height="2"/>
<rect x="530.9" y="18.5" width="108" height="2"/>
</svg>
