<?xml version="1.0" encoding="utf-8"?>
<!-- Generator: Adobe Illustrator 28.1.0, SVG Export Plug-In . SVG Version: 6.00 Build 0)  -->
<svg version="1.1" id="Capa_1" xmlns="http://www.w3.org/2000/svg" xmlns:xlink="http://www.w3.org/1999/xlink" x="0px" y="0px"
	 viewBox="0 0 354.38 38.63" style="enable-background:new 0 0 354.38 38.63;" xml:space="preserve">
<style type="text/css">
	.st0{fill:#FFFFFF;}
</style>
<g id="Grupo_1" transform="translate(0 0.001)">
	<path id="Trazado_1" class="st0" d="M0.12,37.72v-1.85l3.89-0.21c0.05-0.57,0.11-1.02,0.11-1.47c0.21-11.7,0.1-28.53-0.19-30.4
		C2.77,3.27,1.45,3.81,0.25,3.4C-0.1,2.84-0.08,2.12,0.3,1.58C0.69,1.55,1.14,1.51,1.59,1.5c4.53-0.01,9.06-0.03,13.59,0.01
		c2.6-0.05,5.2,0.3,7.69,1.05c6.82,2.24,10.86,6.92,12.18,13.98c0.46,2.57,0.37,5.2-0.28,7.73c-1.71,6.93-7.47,12.12-14.54,13.1
		c-1.78,0.25-3.57,0.39-5.37,0.41c-4.2,0.06-8.4,0.02-12.59,0.02C1.62,37.79,0.96,37.75,0.12,37.72 M11.01,3.87
		C11,4.56,10.98,5.28,10.98,6c0,7,0,13.99,0,20.99c0,2.47-0.01,4.93,0.01,7.4c0.04,0.46,0.12,0.91,0.23,1.35
		c1.19,0,2.26,0.04,3.32-0.01c0.93-0.05,1.86-0.16,2.78-0.31c4.94-0.82,8.23-3.56,9.67-8.39c1.1-4,1.29-8.19,0.57-12.28
		c-0.2-1.25-0.54-2.47-0.99-3.65c-1.2-3.4-4.04-5.97-7.55-6.83c-2.39-0.61-4.87-0.84-7.33-0.66C11.45,3.66,11.22,3.75,11.01,3.87"/>
	<path id="Trazado_2" class="st0" d="M354.38,19.67c-0.21,1.65-0.29,3.33-0.66,4.94c-1.15,5.52-4.89,10.15-10.04,12.45
		c-4.51,2.25-9.86,2.07-14.21-0.48c-5.05-2.65-8.53-7.56-9.36-13.21c-0.63-3.49-0.37-7.09,0.76-10.46
		c1.43-4.44,4.58-8.12,8.74-10.22c5.14-2.9,11.49-2.57,16.31,0.83c4.95,3.13,8.04,8.49,8.26,14.34c0.04,0.6,0.01,1.2,0.01,1.8
		L354.38,19.67 M327.24,19.35c-0.06,2.35,0.12,4.71,0.55,7.02c0.43,2.43,1.39,4.74,2.79,6.76c2.59,3.58,7.6,4.38,11.18,1.79
		c0.7-0.5,1.31-1.12,1.81-1.82c0.96-1.36,1.69-2.87,2.17-4.46c0.54-1.85,0.88-3.76,1.01-5.68c0.35-3.65,0.13-7.33-0.65-10.91
		c-0.45-2.3-1.44-4.45-2.89-6.28c-1.24-1.6-3.07-2.62-5.08-2.84c-3.05-0.45-6.08,0.92-7.74,3.52c-1.01,1.49-1.76,3.14-2.21,4.88
		C327.49,13.95,327.17,16.64,327.24,19.35"/>
	<path id="Trazado_3" class="st0" d="M79.52,19.16c-0.1,5.12-1.22,9.36-4.24,12.94c-2.56,3.21-6.18,5.41-10.21,6.19
		c-3.43,0.68-7,0.14-10.07-1.53c-5.61-2.81-9.34-8.35-9.85-14.6c-0.41-3.05-0.11-6.16,0.86-9.08c2.13-5.99,6.17-10.05,12.35-11.75
		c3.7-1.07,7.67-0.63,11.06,1.21c5.37,2.65,9.05,7.83,9.79,13.77C79.38,17.42,79.46,18.55,79.52,19.16 M72.04,20.13
		c0.13-3.26-0.27-6.51-1.18-9.64c-0.51-1.73-1.35-3.34-2.47-4.74c-1.25-1.59-3.09-2.61-5.1-2.82c-2.98-0.43-5.94,0.89-7.61,3.39
		c-1.2,1.69-2.04,3.6-2.46,5.63c-1.15,5.08-1.15,10.35,0,15.43c0.43,1.95,1.23,3.81,2.34,5.46c2.44,3.7,7.42,4.73,11.12,2.29
		c0.94-0.62,1.73-1.42,2.34-2.37c1.01-1.57,1.75-3.29,2.19-5.1C71.82,25.19,72.1,22.66,72.04,20.13"/>
	<path id="Trazado_4" class="st0" d="M311.08,3.45c-0.77,0.13-1.49,0.26-2.21,0.38c-0.91,0.08-1.61,0.82-1.64,1.73
		c-0.07,0.79-0.09,1.6-0.1,2.39c-0.01,9.26-0.01,18.52-0.01,27.78c0.1,0.72,0.05,1.45-0.17,2.15c-0.66,0.4-1.52,0.2-1.92-0.46
		c0-0.01-0.01-0.02-0.01-0.02c-0.24-0.32-0.48-0.63-0.73-0.95c-7.19-9.26-14.38-18.52-21.58-27.78c-0.4-0.67-0.94-1.25-1.58-1.7
		c-0.11,0.39-0.18,0.8-0.22,1.2c-0.02,1.73-0.01,3.46-0.01,5.2c0,5.8,0,11.59,0,17.39c0,0.73,0,1.47,0.07,2.2
		c0.18,2.01,0.4,2.24,2.34,2.58c0.77,0.14,1.56,0.23,2.45,0.36c0.03,0.57,0.06,1.08,0.08,1.54c-0.19,0.13-0.31,0.27-0.42,0.27
		c-3.53,0.02-7.06,0.03-10.58,0.02c-0.12,0-0.23-0.12-0.42-0.22v-1.43c0.18-0.12,0.28-0.23,0.4-0.25c0.72-0.14,1.44-0.26,2.16-0.4
		c0.76-0.12,1.32-0.76,1.34-1.53c0.06-0.46,0.09-0.93,0.09-1.39c0.01-9.26,0.01-18.52,0-27.78c0-0.26-0.05-0.52-0.09-0.9
		c-0.36-0.11-0.73-0.19-1.1-0.24c-0.86-0.04-1.72-0.01-2.44-0.01c-0.62-0.67-0.4-1.24-0.31-1.92c0.56-0.05,1.07-0.13,1.59-0.13
		c2.8-0.01,5.6,0.04,8.39-0.03c0.93-0.06,1.83,0.39,2.33,1.17c5.35,6.98,10.72,13.94,16.12,20.88c0.44,0.57,0.91,1.13,1.34,1.66
		c0.7-0.17,0.47-0.67,0.47-1c0.02-4.8,0.01-9.59,0.01-14.39c0-0.87,0.01-1.73-0.01-2.6c0-0.47-0.02-0.93-0.08-1.39
		c-0.19-1.3-0.6-1.73-1.88-1.96c-0.59-0.11-1.19-0.13-1.79-0.21c-0.32-0.05-0.64-0.13-1.03-0.22c-0.07-0.32-0.11-0.65-0.13-0.99
		c0.03-0.24,0.09-0.48,0.17-0.71c3.68-0.28,7.38-0.28,11.07,0c0.08,0.24,0.13,0.48,0.15,0.73c-0.02,0.34-0.06,0.68-0.13,1.02"/>
	<path id="Trazado_5" class="st0" d="M89.32,3.33V1.72c0.45-0.1,0.91-0.17,1.36-0.2c2.93-0.02,5.86,0.02,8.79-0.03
		c0.87-0.05,1.7,0.36,2.18,1.08c3.36,4.39,6.75,8.75,10.13,13.13c2.04,2.63,4.07,5.27,6.11,7.91c0.41,0.52,0.83,1.04,1.23,1.55
		c0.72-0.21,0.48-0.76,0.48-1.17c0.02-5.53,0.02-11.06,0.01-16.59c0.01-0.53-0.02-1.07-0.07-1.6c-0.15-1.32-0.52-1.73-1.85-1.96
		c-0.91-0.16-1.84-0.24-2.73-0.35c-0.2-0.57-0.22-1.19-0.06-1.77c3.73-0.31,7.47-0.3,11.2,0.04v1.51c-0.17,0.11-0.35,0.2-0.54,0.27
		c-0.72,0.15-1.45,0.23-2.16,0.41c-0.62,0.11-1.08,0.62-1.13,1.25c-0.1,1.06-0.22,2.12-0.22,3.18c-0.02,9.13-0.01,18.25-0.02,27.38
		c0.11,0.72,0.04,1.46-0.2,2.14c-0.6,0.37-1.39,0.2-1.78-0.39c-0.37-0.47-0.74-0.94-1.11-1.42c-7.11-9.15-14.22-18.31-21.33-27.46
		c-0.44-0.56-0.9-1.1-1.34-1.63c-0.53,0.25-0.39,0.63-0.39,0.93c-0.01,8.13-0.01,16.25,0,24.38c0.01,2.63,0.31,2.95,2.89,3.33
		c0.33,0.05,0.66,0.06,0.99,0.1c0.25,0.03,0.51,0.09,0.87,0.15c0.03,0.55,0.05,1.06,0.08,1.63c-0.25,0.11-0.51,0.19-0.79,0.24
		c-3.33,0.01-6.66,0.01-9.99,0c-0.14-0.02-0.28-0.06-0.41-0.11c-0.36-0.46-0.43-1.09-0.17-1.61c0.15-0.1,0.25-0.21,0.37-0.23
		c0.72-0.14,1.44-0.26,2.16-0.4c0.69-0.08,1.23-0.63,1.3-1.32c0.11-0.59,0.17-1.18,0.2-1.78c0.01-9.19,0.01-18.39,0-27.58
		c0-0.26-0.05-0.53-0.09-0.92c-0.42-0.1-0.85-0.19-1.28-0.25C91.12,3.62,90.21,3.54,89.32,3.33"/>
	<path id="Trazado_6" class="st0" d="M161.61,35.68l3.74,0.17v1.71c-0.22,0.1-0.45,0.18-0.69,0.21c-4.6,0.01-9.19,0.02-13.79,0.01
		c-0.28-0.03-0.56-0.08-0.84-0.16v-1.6c0.17-0.1,0.36-0.18,0.56-0.22c1.18-0.05,2.36-0.07,3.55-0.1c-0.83-3.1-1.95-6.13-3.34-9.02
		c-3.43-0.28-6.88-0.28-10.32-0.01c-1.18,2.75-2.07,5.61-2.68,8.54c1.26,0.74,2.72,0.36,4.04,0.65c0.38,0.48,0.43,1.14,0.14,1.67
		c-0.14,0.08-0.25,0.19-0.36,0.2c-3.19,0.03-6.39,0.04-9.58,0.05c-0.28-0.03-0.55-0.09-0.82-0.18v-1.52c0.19-0.12,0.3-0.25,0.4-0.24
		c2.56,0.12,3.82-1.28,4.59-3.57c3.28-9.71,6.64-19.39,9.98-29.08c0.14-0.51,0.32-1.01,0.55-1.5c0.18-0.26,0.45-0.44,0.76-0.52
		c0.4-0.14,0.84,0.04,1.03,0.41c0.24,0.47,0.41,0.98,0.6,1.48c3.86,10.14,7.72,20.27,11.58,30.41
		C161,34.2,161.31,34.93,161.61,35.68 M145.4,12.6c-0.14,0.18-0.25,0.36-0.36,0.56c-1.19,3.37-2.36,6.75-3.53,10.13
		c-0.07,0.29-0.1,0.6-0.1,0.9c2.82,0.35,5.68,0.31,8.48-0.13c-1.24-3.63-2.68-7.18-4.03-10.76C145.74,13.05,145.59,12.81,145.4,12.6
		"/>
	<path id="Trazado_7" class="st0" d="M250.38,1.33c1-0.33,1.57-0.19,1.86,0.6c0.16,0.44,0.33,0.87,0.5,1.3
		c3.86,10.13,7.72,20.27,11.58,30.4c0.26,0.68,0.54,1.34,0.82,2.05l3.6,0.15c0.37,0.53,0.4,1.22,0.07,1.78
		c-0.18,0.08-0.38,0.13-0.58,0.16c-4.66,0.01-9.32,0-13.98-0.01c-0.22-0.04-0.43-0.1-0.64-0.19v-1.53c0.61-0.45,1.3-0.24,1.94-0.27
		c0.66-0.03,1.32-0.01,2.12-0.01c0-0.34-0.04-0.68-0.12-1.02c-0.97-2.55-1.95-5.1-2.94-7.63c-0.09-0.17-0.2-0.33-0.33-0.47
		c-3.38-0.21-6.78-0.22-10.16-0.03c-1.23,2.73-2.19,5.58-2.87,8.5c0.58,0.42,1.29,0.63,2,0.58c0.71,0.08,1.44,0.11,2.27,0.16
		c0.03,0.6,0.05,1.11,0.07,1.56c-0.19,0.15-0.29,0.3-0.39,0.3c-3.33,0.02-6.65,0.03-9.98,0.03c-0.12,0-0.23-0.11-0.44-0.22v-1.45
		c0.15-0.1,0.25-0.18,0.36-0.25c0.06-0.03,0.13-0.04,0.19-0.04c2.41,0.14,3.58-1.2,4.31-3.34c3.01-8.88,6.09-17.74,9.14-26.61
		C249.31,4.33,249.85,2.83,250.38,1.33 M244.76,24.16c2.84,0.35,5.72,0.33,8.56-0.06c0-0.19-0.02-0.38-0.06-0.57
		c-1.36-3.59-2.73-7.18-4.1-10.76c-0.03-0.06-0.08-0.11-0.14-0.13c-0.04-0.02-0.1,0.02-0.27,0.06
		C247.4,16.42,246.06,20.21,244.76,24.16"/>
	<path id="Trazado_8" class="st0" d="M199.24,2.32h1.57c0.11,0.17,0.19,0.37,0.23,0.57c0.01,3.59,0.01,7.19,0.01,10.75
		c-0.44,0.44-1.12,0.54-1.67,0.24c-0.1-0.13-0.21-0.22-0.24-0.34c-0.18-0.77-0.29-1.57-0.5-2.34c-0.63-2.4-2.02-4.54-3.95-6.1
		c-2.4-2-5.61-2.74-8.64-1.99c-1.92,0.41-3.59,1.57-4.66,3.21c-0.9,1.33-1.55,2.8-1.94,4.36c-0.99,4.02-1.32,8.17-0.99,12.29
		c0.13,1.73,0.34,3.44,0.65,5.15c0.23,1.52,0.8,2.97,1.66,4.25c1.39,2.16,3.64,3.62,6.18,4.01c1.33,0.19,2.68,0.04,3.93-0.46
		c4.28-1.62,7.2-4.46,7.93-9.16c0.13-0.85,0.26-1.69,0.39-2.53c0.19-0.1,0.4-0.18,0.61-0.22c0.31,0,0.62,0.01,0.93,0.05
		c0.12,0.16,0.26,0.27,0.26,0.37c0.18,4.12,0.03,8.24,0.08,12.32c-0.56,0.26-1.2,0.31-1.8,0.16c-0.45-0.69-0.31-1.72-1.24-2.18
		c-0.66,0.05-1.29,0.3-1.8,0.72c-0.81,0.47-1.58,0.99-2.39,1.44c-3.27,1.94-7.26,2.25-10.79,0.84c-6.1-2.38-10.37-6.66-11.71-13.14
		c-1.52-7.28,0.15-13.93,5.63-19.24c3.33-3.4,8.07-5.02,12.78-4.38c1.98,0.3,3.88,0.98,5.61,2c0.7,0.38,1.38,0.81,2.1,1.15
		c0.79,0.38,1.25,0.16,1.52-0.67C199.1,3.13,199.15,2.8,199.24,2.32"/>
	<path id="Trazado_9" class="st0" d="M224.68,3.63c-0.29,1.96-0.43,24.4-0.21,30.78c0.01,0.39,0.1,0.77,0.17,1.29l3.35,0.1
		c0.4,0.48,0.5,1.14,0.25,1.72c-0.12,0.08-0.24,0.21-0.35,0.21c-4.66,0.01-9.32,0.02-13.98,0.01c-0.12,0-0.23-0.11-0.45-0.22
		c-0.02-0.45-0.05-0.96-0.08-1.47c0.19-0.11,0.4-0.19,0.62-0.24c1.06-0.05,2.11-0.06,3.11-0.1c0.56-0.66,0.36-1.36,0.36-1.99
		c0.02-5.66,0.02-11.32,0.01-16.98c0-3.66,0-7.33,0-10.99c0-0.65-0.05-1.3-0.08-2.06l-3.93-0.22V1.8c0.19-0.1,0.36-0.24,0.54-0.25
		c1.26-0.03,2.53-0.05,3.79-0.05c2.86-0.01,5.73-0.01,8.59,0c0.58,0,1.17,0.06,1.85,0.1c0.04,0.62,0.07,1.13,0.1,1.64
		c-0.19,0.12-0.39,0.21-0.61,0.27C226.76,3.56,225.77,3.59,224.68,3.63"/>
</g>
</svg>
